<svg width="30" height="48" viewBox="0 0 30 48" fill="none" xmlns="http://www.w3.org/2000/svg">
<path d="M29.4787 30.7968C27.0501 20.2557 19.3573 3.73931 16.5047 0.728159C16.0592 0.278414 15.4424 0 14.7614 0C14.0803 0 13.4635 0.278414 13.0181 0.728159C10.1611 3.73931 2.46834 20.2557 0.0397154 30.7968C-0.187299 31.782 0.600826 32.4459 1.33755 32.4459H5.18822C5.85642 32.4459 6.43894 32.0775 6.74306 31.5336C8.13513 28.9764 11.1591 26.8519 14.7614 26.8519C18.3593 26.8519 21.3876 28.9764 22.7797 31.5336C23.0838 32.0775 23.6663 32.4459 24.3345 32.4459H28.1852C28.9176 32.4459 29.7058 31.782 29.4787 30.7968ZM14.7614 21.9347C12.7739 21.9347 11.1634 20.3242 11.1634 18.3367C11.1634 16.3493 12.7739 14.7388 14.7614 14.7388C16.7488 14.7388 18.3593 16.3493 18.3593 18.3367C18.3593 20.3242 16.7488 21.9347 14.7614 21.9347Z" fill="#7000E3"/>
<path d="M14.7131 32.4463C12.5843 32.4463 11.1151 34.181 11.1151 36.0443C11.1151 38.3358 13.0769 44.1268 14.7131 47.4078C16.3536 44.1268 18.311 38.3358 18.311 36.0443C18.311 34.181 16.8419 32.4463 14.7131 32.4463ZM2.45432 36.0443C1.09652 36.0443 0 37.235 0 38.7042C0 40.6402 1.20789 43.0089 2.45432 45.2405C3.70504 43.0089 4.90865 40.6402 4.90865 38.7042C4.90865 37.235 3.81212 36.0443 2.45432 36.0443ZM27.0104 36.0443C25.6526 36.0443 24.5561 37.235 24.5561 38.7042C24.5561 40.6402 25.764 43.0089 27.0104 45.2405C28.2611 43.0089 29.4647 40.6402 29.4647 38.7042C29.469 37.235 28.3682 36.0443 27.0104 36.0443Z" fill="#FE4C04"/>
</svg>
