<svg width="323" height="200" viewBox="0 0 323 200" fill="none" xmlns="http://www.w3.org/2000/svg">
<mask id="mask0_11_2739" style="mask-type:alpha" maskUnits="userSpaceOnUse" x="61" y="0" width="201" height="200">
<circle cx="161.039" cy="100" r="100" fill="#D9D9D9"/>
</mask>
<g mask="url(#mask0_11_2739)">
<rect x="11.0389" width="300" height="200" rx="10" fill="url(#paint0_radial_11_2739)"/>
<g style="mix-blend-mode:overlay" opacity="0.15">
<path fill-rule="evenodd" clip-rule="evenodd" d="M-37.7609 319.658C-12.6692 210.741 55.0428 -15.2427 143.179 -119.743C156.071 -139.144 175.409 -123.623 181.856 -113.276C182.303 -112.558 183.184 -111.287 184.463 -109.442C201.449 -84.9343 288.579 40.7778 360.167 314.217C361.328 318.653 358.43 323.221 353.888 323.744C326.384 326.911 297.931 325.053 283.033 323.212C280.256 322.869 277.965 320.982 276.834 318.414C264.802 291.11 227.811 243.702 161.228 243.702C90.1571 243.702 58.91 291.306 44.8183 312.774C41.528 317.787 39.1729 321.375 37.4647 322.599C31.154 327.121 -5.82434 328.679 -30.2463 328.999C-35.1945 329.064 -38.8753 324.495 -37.7609 319.658ZM161.228 182.912C189.709 182.912 212.796 159.749 212.796 131.176C212.796 102.603 189.709 79.4402 161.228 79.4402C132.748 79.4402 109.66 102.603 109.66 131.176C109.66 159.749 132.748 182.912 161.228 182.912Z" fill="white"/>
</g>
<g style="mix-blend-mode:overlay" opacity="0.15">
<path fill-rule="evenodd" clip-rule="evenodd" d="M18.9589 257.028C36.8986 179.165 85.3102 17.6153 148.325 -57.0894C157.542 -70.9587 171.368 -59.8633 175.977 -52.4663C176.296 -51.9533 176.927 -51.0444 177.841 -49.7254C189.985 -32.2055 252.28 57.663 303.463 253.138C304.293 256.309 302.221 259.575 298.974 259.949C279.309 262.213 258.966 260.885 248.315 259.568C246.33 259.323 244.692 257.974 243.883 256.138C235.281 236.62 208.834 202.728 161.229 202.728C110.416 202.728 88.0751 236.76 78.0001 252.107C75.6476 255.69 73.9639 258.255 72.7425 259.13C68.2306 262.363 41.7924 263.477 24.3316 263.706C20.7938 263.752 18.1622 260.486 18.9589 257.028ZM161.229 159.271C181.591 159.271 198.098 142.713 198.098 122.287C198.098 101.861 181.591 85.3019 161.229 85.3019C140.867 85.3019 124.36 101.861 124.36 122.287C124.36 142.713 140.867 159.271 161.229 159.271Z" fill="white"/>
</g>
<g filter="url(#filter0_f_11_2739)">
<path d="M185.449 133.13C185.492 157.545 165.734 177.367 141.326 177.41C116.905 177.453 97.082 157.695 97.039 133.28C96.996 108.866 116.754 89.0431 141.169 89.0001C165.583 88.9571 185.406 108.715 185.449 133.13Z" fill="#323334"/>
<path d="M104.439 129.369C104.439 129.369 101.903 134.434 100.714 141.075C100.084 144.428 100.256 145.724 102.849 149.414C107.806 156.463 109.647 158.39 111.345 158.096C113.043 157.81 121.017 156.076 123.352 155.51C125.114 155.08 125.114 154.651 125.816 151.584C126.519 148.518 127.643 144.234 127.915 141.884C128.195 139.535 127.844 139.606 125.788 137.042C123.732 134.477 118.846 127.929 117.857 126.718C116.862 125.508 116.367 125.866 114.039 126.224C111.711 126.582 108.179 127.521 106.481 127.951C104.783 128.38 104.79 128.81 104.432 129.383L104.439 129.369Z" fill="white"/>
<path d="M107.842 105.384C107.842 105.384 105.679 108.285 103.716 111.695C102.627 113.68 102.964 116.538 103.623 122.04C104.289 127.542 104.833 127.542 106.904 127.098C108.974 126.654 114.748 125.436 116.274 125.099C117.8 124.77 118.996 122.119 120.408 119.812C121.819 117.498 127.464 110.198 128.603 109.045C129.678 108.085 129.363 107.125 129.04 104.56C128.718 101.995 127.944 96.6799 127.249 96.4936C126.554 96.3002 121.16 96.3073 119.125 96.1855C117.091 96.0566 111.954 100.212 107.835 105.391L107.842 105.384Z" fill="white"/>
<path d="M128.589 142.106C128.589 142.106 126.468 150.681 125.759 153.991C125.408 155.932 125.336 156.369 129.334 159.027C133.331 161.685 135.33 163.261 136.62 163.984C137.902 164.701 139.048 164.701 142.752 163.827C146.456 162.96 150.131 162.172 151.664 161.506C153.161 160.854 155.504 155.667 156.571 152.214C157.631 148.754 158.484 145.946 156.987 144.728C155.489 143.503 153.698 141.64 151.27 139.985C148.841 138.33 146.771 136.174 145.847 136.611C144.923 137.048 135.344 139.448 131.641 140.444C129.878 140.938 128.732 141.368 128.596 142.113L128.589 142.106Z" fill="white"/>
<path d="M136.09 176.041C136.09 176.041 137.838 168.72 138.117 166.943C138.396 165.166 139.027 165.095 141.563 164.665C144.099 164.235 150.847 162.229 152.044 161.807C153.24 161.377 153.956 161.155 155.998 162.716C158.04 164.278 162.61 167.681 164.158 168.748C165.283 169.529 160.067 173.305 153.261 175.16C145.381 177.302 136.025 177.252 136.09 176.041Z" fill="white"/>
<path d="M130.007 107.11C130.007 107.11 129.069 101.809 128.725 98.9076C128.381 95.999 128.725 96.3429 132.529 94.7095C136.333 93.0762 145.395 91.0129 147.344 90.841C149.293 90.6691 151.578 91.2637 156.492 93.7281C161.407 96.1996 162.682 97.0521 162.94 98.5064C163.198 99.9607 163.8 106.623 163.893 109.704C163.814 111.838 163.076 111.588 159.458 113.078C155.747 114.611 152.208 116.094 151.334 116.602C150.159 117.104 148.175 115.929 144.908 113.809C142.014 111.932 136.061 109.36 133.511 108.615C130.967 107.87 130.308 108.357 130.015 107.11H130.007Z" fill="white"/>
<path d="M150.575 118.996C150.575 118.996 148.755 127.27 147.896 131.49C147.029 135.537 147.294 136.154 149.737 137.995C152.18 139.836 154.974 142.472 156.457 143.611C157.939 144.75 158.907 146.076 163.606 144.743C169.531 143.06 171.1 142.615 172.926 141.999C174.753 141.383 175.104 140.674 175.792 137.328C176.487 133.983 176.996 128.968 177.339 126.239C177.683 123.509 177.16 123.072 174.975 120.873C172.79 118.681 168.693 115.17 167.116 113.587C165.548 112.004 164.416 111.832 162.496 112.541C160.583 113.25 155.353 115.192 153.441 116.252C151.528 117.312 150.826 117.398 150.568 118.982L150.575 118.996Z" fill="white"/>
<path d="M182.361 122.133C182.361 122.133 179.517 123.078 178.643 123.487C177.769 123.902 177.891 126.711 177.547 129.59C177.203 132.463 176.172 137.979 175.477 140.444C175.076 141.619 176.695 142.593 178.042 144.778C180.141 148.174 181.251 150.051 181.709 149.406C182.175 148.761 185.184 142.127 185.048 131.159C184.69 126.231 183.808 121.309 182.361 122.133Z" fill="white"/>
<path d="M99.4245 146.463C99.4245 146.463 99.84 145.259 100.205 145.882C100.571 146.513 104.74 153.376 108.122 157.044C109.318 158.197 109.633 158.505 109.791 160.661C109.948 162.811 109.69 163.334 108.444 162.08C107.19 160.826 101.151 153.225 99.4245 146.463Z" fill="white"/>
<path d="M150.26 90.0032C150.26 90.0032 149.637 89.7955 149.379 90.0605C149.121 90.3256 150.575 90.7411 153.125 91.8372C155.676 92.9333 159.623 94.9177 161.292 96.0711C162.438 96.7516 162.904 96.9092 163.893 96.4866C164.881 96.0639 165.189 95.9063 164.043 95.283C162.897 94.6598 155.618 90.7841 150.26 90.0104V90.0032Z" fill="white"/>
<g style="mix-blend-mode:screen">
<path d="M149.171 163.097C149.171 163.097 143.662 164.458 140.13 165.246C137.809 165.547 138.095 169.451 137.078 173.771C137.078 173.771 138.475 168.785 139.184 166.994C139.894 165.203 142.766 165.726 149.178 163.104L149.171 163.097Z" fill="#979797"/>
</g>
<g style="mix-blend-mode:screen">
<path d="M110.034 103.55C110.034 103.55 115.056 98.2772 117.098 97.1453C119.147 96.0134 126.877 96.7727 126.877 96.7727C126.877 96.7727 121.454 96.9518 118.896 97.0951C116.339 97.2456 110.027 103.55 110.027 103.55H110.034Z" fill="white"/>
</g>
<path d="M137.752 93.5423C137.752 93.5423 145.539 91.2785 147.974 91.1711C150.403 91.0636 155.267 93.0982 160.633 96.1571C154.658 93.5137 150.195 91.78 148.376 91.7872C146.556 91.7872 137.752 93.5423 137.752 93.5423Z" fill="white"/>
<path d="M108.58 128.13C108.58 128.13 115.551 126.36 116.596 126.532C117.642 126.704 125.852 137.952 125.852 137.952C125.852 137.952 118.688 129.169 116.596 128.116C114.505 127.062 108.58 128.13 108.58 128.13Z" fill="white"/>
<path d="M169.832 116.517C169.832 116.517 174.588 120.965 175.978 122.37C177.375 123.774 177.289 123.852 176.079 134.104C176.637 127.578 176.96 124.848 175.728 123.201C174.495 121.553 169.824 116.517 169.824 116.517H169.832Z" fill="url(#paint1_linear_11_2739)"/>
<g style="mix-blend-mode:screen">
<path d="M126.862 146.14C126.862 146.14 125.738 151.248 125.122 153.54C124.505 155.832 122.335 155.524 116.761 156.678C122.643 154.894 124.09 154.686 124.606 153.124C125.122 151.563 126.862 146.14 126.862 146.14Z" fill="white"/>
</g>
<g style="mix-blend-mode:screen">
<path d="M126.948 149.707C126.948 149.707 128.159 144.693 128.596 142.665C129.205 140.731 133.038 140.459 137.042 139.398C137.042 139.398 133.296 140.638 130.86 141.605C128.417 142.579 128.424 145.832 126.948 149.707Z" fill="white"/>
</g>
<path d="M129.277 158.612C129.277 158.612 133.675 161.743 135.602 163.032C137.537 164.329 138.604 164.437 143.633 163.34C148.669 162.252 150.059 161.707 150.059 161.707C150.059 161.707 142.996 163.233 139.349 163.348C135.71 163.462 129.277 158.612 129.277 158.612Z" fill="white"/>
<g style="mix-blend-mode:screen">
<path d="M148.125 132.815C148.125 132.815 150.109 121.954 150.74 119.397C151.37 116.839 155.898 115.45 160.647 113.522C160.647 113.522 155.275 116.302 153.168 117.692C151.062 119.082 151.277 120.672 148.132 132.822L148.125 132.815Z" fill="white"/>
</g>
<g style="mix-blend-mode:screen">
<path d="M152.531 141.562C152.531 141.562 155.719 144.162 156.75 145.115C157.782 146.068 157.789 148.496 154.623 156.147C155.991 151.018 157.875 146.677 155.977 144.943C154.078 143.209 152.531 141.562 152.531 141.562Z" fill="white"/>
</g>
<g style="mix-blend-mode:screen">
<path d="M103.401 151.369C103.401 151.369 105.944 154.836 107.713 156.799C109.253 158.397 109.576 158.669 109.583 161.922C109.354 159.815 109.074 158.791 108.079 157.745C107.076 156.699 103.401 151.369 103.401 151.369Z" fill="white"/>
</g>
<g style="mix-blend-mode:multiply">
<path d="M141.169 89.0001C116.754 89.0431 96.996 108.866 97.039 133.28C97.082 157.695 116.905 177.446 141.326 177.403C165.741 177.36 185.492 157.537 185.449 133.123C185.406 108.715 165.576 88.9571 141.169 89.0001ZM140.818 168.247C118.538 168.283 100.449 151.147 100.413 129.971C100.37 108.794 118.402 91.5934 140.682 91.5576C162.961 91.5218 181.05 108.658 181.086 129.834C181.122 151.011 163.09 168.212 140.818 168.247Z" fill="#CFD1D2"/>
</g>
<g style="mix-blend-mode:screen">
<path d="M134.384 111.688C135.617 113.142 135.122 115.585 133.288 117.147C131.447 118.701 128.961 118.787 127.722 117.333C126.49 115.879 126.984 113.436 128.818 111.874C130.659 110.32 133.145 110.234 134.377 111.688H134.384Z" fill="#4A4B4C"/>
</g>
<g style="mix-blend-mode:screen">
<path d="M126.39 119.618C126.934 120.263 126.719 121.345 125.902 122.033C125.086 122.72 123.982 122.756 123.438 122.111C122.894 121.467 123.108 120.385 123.925 119.697C124.742 119.009 125.845 118.974 126.39 119.618Z" fill="#4A4B4C"/>
</g>
</g>
<g filter="url(#filter1_f_11_2739)">
<path d="M137.315 22.5862C121.812 17.3237 113.938 27.726 111.813 32.2809C109.689 36.8358 103.863 39.033 103.863 39.033L90.1944 42.754L76.5257 46.475C76.5257 46.475 70.3897 47.5337 66.2498 44.6846C62.1099 41.8356 50.0495 36.8591 39.3531 49.2532C28.6539 61.6478 33.7299 109.512 43.4213 141.744C48.2566 153.887 61.3307 149.105 68.1208 131.35C74.9118 113.596 84.0007 106.534 105.928 100.564C127.857 94.5953 139.271 96.0753 154.124 107.939C168.976 119.802 182.671 117.297 180.685 104.379C172.702 71.6814 152.816 27.8475 137.314 22.5851L137.315 22.5862Z" fill="#E3DCDE"/>
<g style="mix-blend-mode:overlay" opacity="0.3">
<path d="M37.8544 59.4869C37.8544 59.4869 34.7493 89.6584 43.5325 126.421C47.1502 138.59 52.3461 130.446 55.4772 117.357C58.6083 104.269 66.9206 83.1148 102.105 76.4068C137.291 69.6997 145.476 53.095 134.782 36.5822C124.087 20.0701 117.214 36.6489 117.214 36.6489C117.214 36.6489 116.117 42.1207 107.542 45.0667C98.9655 48.0134 79.3584 53.0452 73.6806 53.2135C68.0028 53.3818 59.3304 46.5204 59.3304 46.5204C59.3304 46.5204 40.3309 40.4955 37.8528 59.4848L37.8544 59.4869Z" fill="white"/>
</g>
<path d="M127.724 27.904C121.108 29.7049 117.19 36.5539 118.991 43.1703C120.793 49.7877 127.641 53.7061 134.258 51.9044C140.875 50.1035 144.793 43.2537 142.993 36.6373C141.192 30.0209 134.343 26.1033 127.726 27.9042L127.724 27.904ZM133.713 49.905C128.199 51.4055 122.491 48.141 120.99 42.6258C119.489 37.1117 122.754 31.4037 128.268 29.9032C133.783 28.4019 139.49 31.6672 140.99 37.1813C142.492 42.6965 139.226 48.4034 133.711 49.9048L133.713 49.905Z" fill="#CBC0C2"/>
<path d="M138.295 47.7742C139.018 50.4282 137.452 53.1661 134.798 53.8882C132.144 54.6103 129.406 53.0446 128.684 50.3907C127.962 47.7367 129.527 44.9989 132.181 44.2767C134.835 43.5546 137.573 45.1203 138.295 47.7742Z" fill="#6B9541"/>
<path d="M127.184 25.9193C124.53 26.6414 122.964 29.3793 123.686 32.0333C124.409 34.6872 127.146 36.2529 129.8 35.5308C132.454 34.8086 134.02 32.0708 133.298 29.4168C132.576 26.7629 129.838 25.1972 127.184 25.9193Z" fill="#DDAE30"/>
<g style="mix-blend-mode:overlay" opacity="0.3">
<path d="M128.009 28.9476C127.028 29.2148 126.448 30.2272 126.716 31.2093C126.984 32.1915 127.995 32.7707 128.977 32.5026C129.959 32.2354 130.539 31.223 130.271 30.2409C130.003 29.2587 128.991 28.6795 128.009 28.9476Z" fill="white"/>
</g>
<g style="mix-blend-mode:overlay" opacity="0.3">
<path d="M133.005 47.306C132.024 47.5732 131.444 48.5856 131.712 49.5677C131.979 50.5488 132.992 51.1291 133.974 50.861C134.955 50.5938 135.535 49.5814 135.267 48.5993C135 47.6182 133.988 47.0379 133.005 47.306Z" fill="white"/>
</g>
<path d="M126.618 41.0936C125.896 38.4396 123.158 36.8739 120.504 37.5961C117.85 38.3182 116.284 41.0561 117.007 43.71C117.729 46.364 120.467 47.9297 123.121 47.2075C125.775 46.4854 127.34 43.7475 126.618 41.0936Z" fill="#3C55D7"/>
<path d="M103.93 51.9675C103.482 50.3229 101.786 49.3532 100.141 49.8009C98.4965 50.2487 97.5268 51.9449 97.9746 53.5894C98.4224 55.234 100.118 56.2037 101.763 55.7559C103.408 55.3082 104.377 53.612 103.93 51.9675Z" fill="#99A6B9"/>
<path d="M86.8105 59.8253C88.455 59.3775 89.4247 57.6814 88.977 56.0368C88.5292 54.3922 86.8331 53.4225 85.1885 53.8703C83.5439 54.3181 82.5742 56.0142 83.022 57.6588C83.4697 59.3034 85.1659 60.2731 86.8105 59.8253Z" fill="#99A6B9"/>
<path d="M144.976 36.0975C144.254 33.4435 141.516 31.8778 138.862 32.6C136.208 33.3221 134.643 36.06 135.365 38.7139C136.087 41.3679 138.825 42.9336 141.479 42.2114C144.133 41.4893 145.698 38.7515 144.976 36.0975Z" fill="#B5333E"/>
<path d="M165.825 109.342C165.825 109.342 158.217 104.99 144.683 94.6035C131.149 84.2164 116.495 88.8114 116.495 88.8114L112.766 89.8258L94.5936 94.7721L90.8648 95.7865C90.8648 95.7865 75.9025 99.2528 69.5016 115.066C63.1007 130.879 58.747 138.487 58.747 138.487C58.747 138.487 55.3938 142.287 55.4074 147.589C60.0166 145.552 64.8132 139.993 68.1202 131.347C74.9111 113.594 84 106.531 105.928 100.561C127.856 94.5925 139.271 96.0725 154.123 107.936C161.356 113.713 168.308 116.074 173.314 115.493C170.639 110.915 165.822 109.339 165.822 109.339L165.825 109.342Z" fill="#3D3B5B"/>
<path d="M92.1008 71.4104C92.1008 71.4104 87.8509 68.1436 82.4341 67.9092C77.0173 67.6748 71.7396 82.5323 71.7396 82.5323L73.6778 86.9672C73.6778 86.9672 76.8968 89.9411 82.7347 91.3298C84.779 92.0479 87.0521 92.1789 89.2976 91.5679C95.188 89.9648 98.674 83.8684 97.0709 77.9781C96.2923 75.1198 94.4556 72.83 92.0979 71.411L92.1008 71.4104Z" fill="#CBC0C2"/>
<g style="mix-blend-mode:overlay" opacity="0.3">
<path d="M77.2689 65.9146C70.1337 67.8562 65.9091 75.2425 67.8507 82.3777C69.7931 89.514 77.1786 93.7375 84.3138 91.7959C91.449 89.8543 95.6736 82.468 93.732 75.3328C91.7904 68.1976 84.4041 63.973 77.2697 65.9157L77.2689 65.9146Z" fill="white"/>
</g>
<path d="M77.884 68.1732C71.9937 69.7763 68.5066 75.8735 70.1099 81.762C71.713 87.6523 77.8092 91.1402 83.6987 89.5361C89.589 87.933 93.0761 81.8358 91.4719 75.9463C89.8689 70.0559 83.7735 66.5691 77.8832 68.1722L77.884 68.1732Z" fill="#76829B"/>
<path d="M86.7213 72.5457C85.2037 72.9592 83.6381 72.0625 83.2246 70.5449L82.6658 68.4918C82.6095 68.2856 82.531 68.092 82.4349 67.9104C80.9589 67.6864 79.4154 67.7563 77.8841 68.1738C76.3538 68.5905 74.9873 69.3131 73.827 70.2537C73.837 70.4592 73.8667 70.6661 73.923 70.8723L74.4818 72.9253C74.8953 74.4429 73.9994 76.0096 72.481 76.422L70.428 76.9809C70.2218 77.0371 70.0281 77.1157 69.8466 77.2117C69.6226 78.6877 69.6924 80.2313 70.11 81.7626C70.5267 83.2929 71.2482 84.6602 72.1899 85.8196C72.3954 85.8096 72.6022 85.7799 72.8084 85.7237L74.8615 85.1648C76.3791 84.7514 77.9457 85.6472 78.3581 87.1656L78.917 89.2187C78.9733 89.4249 79.0518 89.6186 79.1478 89.8001C80.6239 90.0241 82.1674 89.9542 83.6987 89.5367C85.229 89.12 86.5955 88.3974 87.7547 87.4576C87.7447 87.2521 87.715 87.0452 87.6588 86.839L87.0999 84.786C86.6864 83.2684 87.5823 81.7018 89.1007 81.2893L91.1538 80.7305C91.36 80.6742 91.5537 80.5957 91.7352 80.4996C91.9592 79.0236 91.8885 77.479 91.4718 75.9487C91.0551 74.4185 90.3325 73.052 89.3927 71.8928C89.1872 71.9027 88.9803 71.9324 88.7741 71.9887L86.7211 72.5475L86.7213 72.5457Z" fill="#99A6B9"/>
<path d="M83.8344 78.0266C84.2915 79.7045 83.2981 81.4413 81.6203 81.8985C79.9424 82.3556 78.2055 81.3622 77.7484 79.6844C77.2913 78.0065 78.2847 76.2696 79.9633 75.8136C81.6412 75.3564 83.378 76.3498 83.8352 78.0277L83.8344 78.0266ZM78.2437 69.4971C77.5089 69.6967 77.0746 70.4566 77.2742 71.1913C77.4738 71.9261 78.2337 72.3604 78.9685 72.1608C79.7032 71.9612 80.1375 71.2014 79.9379 70.4666C79.7383 69.7318 78.9785 69.2975 78.2437 69.4971ZM83.3391 88.2139C84.0739 88.0143 84.5082 87.2544 84.3086 86.5196C84.1089 85.7848 83.3491 85.3505 82.6143 85.5502C81.8795 85.7498 81.4452 86.5096 81.6448 87.2444C81.8444 87.9792 82.6043 88.4135 83.3391 88.2139ZM90.1498 76.3078C89.9502 75.573 89.1903 75.1387 88.4555 75.3383C87.7207 75.5379 87.2864 76.2978 87.486 77.0326C87.6857 77.7673 88.4455 78.2017 89.1803 78.002C89.9151 77.8024 90.3494 77.0426 90.1498 76.3078ZM71.433 81.4032C71.6326 82.138 72.3925 82.5723 73.1272 82.3727C73.862 82.1731 74.2963 81.4132 74.0967 80.6784C73.8971 79.9436 73.1372 79.5093 72.4025 79.7089C71.6677 79.9086 71.2334 80.6684 71.433 81.4032Z" fill="#76829B"/>
<g style="mix-blend-mode:overlay" opacity="0.3">
<path d="M70.8965 82.1217C69.2935 76.2313 72.7803 70.136 78.6706 68.5329C81.1263 67.8642 83.618 68.0832 85.8048 68.9903C83.4398 67.7871 80.6406 67.4232 77.885 68.1732C71.9947 69.7762 68.5076 75.8735 70.1109 81.7619C71.0463 85.1958 73.509 87.8105 76.5655 89.0787C73.8754 87.7106 71.7497 85.2564 70.8965 82.1217Z" fill="white"/>
</g>
<g style="mix-blend-mode:overlay" opacity="0.3">
<path d="M79.9143 82.9173C79.1029 79.9359 80.8682 76.8506 83.8506 76.0383C84.4095 75.8862 84.971 75.8252 85.5202 75.8451C84.236 73.8301 81.7443 72.788 79.3208 73.4482C76.3395 74.2597 74.5731 77.3458 75.3846 80.3272C76.0448 82.7506 78.2059 84.3708 80.5939 84.4566C80.2983 83.9925 80.0654 83.477 79.9141 82.9191L79.9143 82.9173Z" fill="black"/>
</g>
<path d="M63.6635 54.8491C63.6635 54.8491 59.7867 51.8701 54.8481 51.6557C49.9084 51.4422 45.0953 64.9909 45.0953 64.9909L46.8636 69.0351C46.8636 69.0351 49.8 71.7479 55.1244 73.014C56.9888 73.6695 59.0627 73.7885 61.1099 73.2308C66.4815 71.7685 69.6615 66.2086 68.1991 60.8371C67.4894 58.2309 65.8136 56.1426 63.6645 54.8483L63.6635 54.8491Z" fill="#CBC0C2"/>
<g style="mix-blend-mode:overlay" opacity="0.3">
<path d="M65.4794 62.9462C66.2774 56.1341 61.4021 49.9649 54.59 49.1669C47.7779 48.3688 41.6087 53.2442 40.8107 60.0563C40.0126 66.8683 44.888 73.0376 51.7001 73.8356C58.5121 74.6336 64.6814 69.7583 65.4794 62.9462Z" fill="white"/>
</g>
<path d="M60.002 68.6474C63.9489 64.86 64.0783 58.59 60.2908 54.6431C56.5034 50.6961 50.2334 50.5668 46.2865 54.3542C42.3395 58.1416 42.2102 64.4116 45.9976 68.3585C49.785 72.3055 56.055 72.4348 60.002 68.6474Z" fill="#3D3B5B"/>
<g style="mix-blend-mode:overlay" opacity="0.3">
<path d="M55.0225 68.3998C51.2174 69.4355 47.28 67.1834 46.2443 63.3783C45.2086 59.5732 47.4607 55.6358 51.2658 54.6001C55.0709 53.5644 59.0083 55.8165 60.044 59.6216C61.0796 63.4267 58.8276 67.3641 55.0225 68.3998ZM51.5795 55.7494C48.4086 56.6125 46.5313 59.8947 47.3944 63.0656C48.2575 66.2365 51.5397 68.1138 54.7106 67.2507C57.8815 66.3876 59.7588 63.1054 58.8957 59.9345C58.0327 56.7636 54.7505 54.8863 51.5795 55.7494Z" fill="black"/>
</g>
<path d="M130.824 62.6099C130.824 62.6099 126.948 59.6308 122.009 59.4165C117.069 59.2029 112.256 72.7517 112.256 72.7517L114.025 76.7958C114.025 76.7958 116.961 79.5086 122.285 80.7737C124.149 81.4292 126.223 81.5482 128.27 80.9905C133.642 79.5282 136.822 73.9683 135.359 68.5967C134.65 65.9906 132.974 63.9023 130.825 62.608L130.824 62.6099Z" fill="#CBC0C2"/>
<g style="mix-blend-mode:overlay" opacity="0.3">
<path d="M108.321 72.5237C110.123 79.1412 116.949 83.0465 123.566 81.2448C130.183 79.4431 134.089 72.6173 132.287 65.9999C130.485 59.3824 123.66 55.477 117.042 57.2787C110.425 59.0805 106.519 65.9063 108.321 72.5237Z" fill="white"/>
</g>
<path d="M110.747 71.8631C112.184 77.1418 117.627 80.2551 122.905 78.8187C128.184 77.3824 131.298 71.9387 129.861 66.6609C128.424 61.3823 122.981 58.268 117.703 59.7054C112.424 61.1417 109.31 66.5854 110.747 71.8631Z" fill="#3D3B5B"/>
<g style="mix-blend-mode:overlay" opacity="0.3">
<path d="M122.182 76.1615C118.377 77.1972 114.44 74.9451 113.404 71.14C112.369 67.3349 114.621 63.3975 118.426 62.3618C122.231 61.3262 126.168 63.5782 127.204 67.3833C128.24 71.1884 125.988 75.1258 122.182 76.1615ZM118.739 63.5111C115.569 64.3742 113.691 67.6564 114.554 70.8273C115.417 73.9982 118.7 75.8755 121.871 75.0124C125.041 74.1494 126.919 70.8672 126.056 67.6963C125.193 64.5253 121.91 62.648 118.739 63.5111Z" fill="black"/>
</g>
<g style="mix-blend-mode:overlay" opacity="0.3">
<path d="M137.315 22.5864C121.812 17.324 113.938 27.7263 111.813 32.2812C109.689 36.8361 103.863 39.0333 103.863 39.0333L90.1943 42.7543L76.5256 46.4752C76.5256 46.4752 70.3896 47.534 66.2497 44.6849C63.31 42.6623 56.3799 39.5743 48.7798 42.3829C53.5872 41.7711 59.4204 42.1016 64.0679 45.6572C69.07 49.4237 73.2194 50.5039 80.2436 48.5568C87.2678 46.6098 108.635 40.8288 108.635 40.8288C108.635 40.8288 114.159 38.3077 116.195 31.4672C118.231 24.6267 130.81 20.832 137.013 25.8006C143.215 30.7691 153.794 47.1597 163.377 91.3522C164.641 100.491 153.929 93.9236 144.249 88.6054C134.569 83.2872 119.046 84.7598 105.54 89.0485C92.0344 93.3363 76.6188 95.3911 69.1243 108.749C61.6299 122.106 58.4137 138.376 51.5773 141.361C47.6082 143.093 44.7673 141.382 41.9231 136.493C42.4088 138.282 42.9091 140.036 43.4231 141.745C48.2584 153.888 61.3324 149.106 68.1226 131.351C74.9136 113.597 84.0024 106.534 105.93 100.565C127.859 94.5958 139.273 96.0758 154.125 107.939C168.978 119.802 182.672 117.297 180.686 104.379C172.704 71.6819 152.818 27.848 137.316 22.5856L137.315 22.5864Z" fill="black"/>
</g>
<g style="mix-blend-mode:overlay" opacity="0.3">
<path d="M177.113 104.741C177.316 111.109 169.631 116.259 159.549 108.605C149.469 100.949 136.414 91.656 117.224 95.6554C98.0344 99.6558 83.001 104.665 76.0939 112.662C69.1868 120.66 65.3445 134.618 60.3757 141.106C56.8645 145.689 50.7816 147.522 46.0525 146.013C51.977 152.185 62.3307 146.488 68.1207 131.351C74.9117 113.597 84.0006 106.534 105.928 100.564C127.857 94.5956 139.271 96.0757 154.124 107.939C168.976 119.802 182.671 117.297 180.685 104.379C174.654 79.6791 161.832 48.6284 149.237 32.6458C157.366 46.3759 169.27 70.4377 177.112 104.74L177.113 104.741Z" fill="black"/>
</g>
<g style="mix-blend-mode:overlay" opacity="0.3">
<path d="M121.327 40.6253C120.346 40.8926 119.766 41.9049 120.034 42.8871C120.301 43.8682 121.313 44.4484 122.296 44.1804C123.277 43.9131 123.857 42.9007 123.589 41.9186C123.322 40.9375 122.309 40.3572 121.327 40.6253Z" fill="white"/>
</g>
<g style="mix-blend-mode:overlay" opacity="0.3">
<path d="M139.686 35.6283C138.705 35.8955 138.125 36.9079 138.393 37.89C138.66 38.8711 139.673 39.4514 140.655 39.1833C141.636 38.916 142.216 37.9037 141.948 36.9215C141.68 35.9394 140.668 35.3602 139.686 35.6283Z" fill="white"/>
</g>
</g>
<path d="M214.361 179.06C204.447 174.721 228.421 163.29 228.421 163.29L179.866 162.12L219.54 26.8558L225.478 20.3556C206.95 16.2971 187.16 12.1235 179.343 11.0072C163.005 8.67615 162.782 21.0931 162.782 21.0931L138.596 147.466C135.208 163.899 149.962 164.867 149.962 164.867C149.962 164.867 203.681 178.573 221.066 182.643C222.716 183.03 224.222 183.247 225.608 183.327C221.214 181.791 217.156 180.281 214.361 179.06Z" fill="#69512C"/>
<path d="M179.862 162.12L228.417 163.29C228.417 163.29 204.447 174.722 214.356 179.06C217.151 180.281 221.21 181.79 225.603 183.327C239.975 184.178 240.934 170.123 240.934 170.123C240.934 170.123 267.353 62.3835 270.882 47.5312C274.411 32.6834 264.409 29.0651 264.409 29.0651C264.409 29.0651 245.697 24.7821 225.478 20.3564L219.54 26.8566L179.862 162.12Z" fill="#82612F"/>
<path d="M232.062 161.494C232.062 161.494 224.215 178.657 204.492 173.026L216.609 162.079L225.939 159.031L232.063 161.49" fill="#BCBDBD"/>
<path d="M169.565 26.8382L263.245 44.1386L232.356 160.251C232.356 160.251 230.856 169.003 217.529 166.255C217.529 166.255 217.83 175.042 208.427 173.776C199.024 172.51 146.201 156.25 146.201 156.25L169.565 26.8382Z" fill="white"/>
<path d="M200.852 23.8878C200.852 23.8878 198.985 23.7646 191.74 22.5511L185.766 32.0347L196.949 34.1862L210.714 10.827C201.156 13.2351 200.852 23.8878 200.852 23.8878Z" fill="#B4B4B4"/>
<path d="M189.888 22.2379C181.1 20.7343 180.097 30.944 180.097 30.944L185.77 32.0341L191.744 22.5505C191.161 22.4537 190.547 22.3504 189.893 22.2388L189.888 22.2379Z" fill="#D2D2D2"/>
<path d="M245.677 35.4417C244.591 33.9327 243.149 33.1773 241.913 32.8011L237.266 41.9461L241.495 42.762L245.676 35.4462L245.677 35.4417Z" fill="#D2D2D2"/>
<path d="M247.199 43.8586C247.666 39.7584 246.894 37.1319 245.677 35.4417L241.496 42.7575L247.2 43.8541L247.199 43.8586Z" fill="#B4B4B4"/>
<path d="M222.997 11.9242L220.081 16.6597C220.262 17.4632 220.1 18.271 220.022 18.6475C219.88 19.3378 219.308 21.0893 217.277 21.2172L207.983 36.3109L219.039 38.441L228.973 17.7967C227.941 15.4622 226.117 13.3151 223.005 11.9305L222.997 11.9242Z" fill="#D2D2D2"/>
<path d="M213.69 16.4497C214.562 14.1669 216.541 14.36 217.694 14.593C217.703 14.5949 217.712 14.5967 217.721 14.5986L219.84 10.8951C219.237 10.7613 218.607 10.6409 217.938 10.5544C215.077 10.1748 212.697 10.3195 210.715 10.8221L196.949 34.1858L205.569 35.8463L214.402 20.4097C213.261 19.5295 213.078 18.0573 213.694 16.4507L213.69 16.4497Z" fill="#D2D2D2"/>
<path d="M239.348 32.4375L231.581 30.3548L226.339 39.8445L237.266 41.9478L241.913 32.8028C240.493 32.3698 239.354 32.4339 239.354 32.4339L239.348 32.4375Z" fill="#D2D2D2"/>
<path d="M216.343 21.1694C215.519 21.0416 214.877 20.7784 214.402 20.4093L205.569 35.8459L207.974 36.309L217.268 21.2153C216.989 21.2325 216.678 21.2199 216.339 21.1685L216.343 21.1694Z" fill="#B4B4B4"/>
<path d="M220.077 16.6594L222.993 11.9239C222.06 11.5072 221.014 11.1608 219.839 10.8998L217.721 14.5989C219.281 14.9205 219.882 15.792 220.076 16.6638L220.077 16.6594Z" fill="#B4B4B4"/>
<path d="M229.419 29.7764C229.419 29.7764 231.39 23.276 228.965 17.7899L219.031 38.4341L226.339 39.8427L231.581 30.3529L229.42 29.7719L229.419 29.7764Z" fill="#B4B4B4"/>
<path d="M189.67 61.0926L174.12 57.8866L177.457 43.3312L192.812 46.6653L189.67 61.0926ZM177.427 55.7646L187.566 57.8551L189.547 48.7679L179.532 46.5955L177.427 55.7646Z" fill="#F75959"/>
<path d="M179.906 49.4494L183.367 55.079L199.477 47.0728L198.595 46.2929L184.336 51.1057L182.893 47.9762L179.906 49.4494Z" fill="#4D4D4C"/>
<path d="M195.902 51.3296C195.535 51.2538 195.295 50.8961 195.368 50.5231C195.444 50.151 195.802 49.9117 196.175 49.9839L238.512 58.3996L238.516 58.4005C238.884 58.4763 239.123 58.8341 239.051 59.2071C238.974 59.5791 238.616 59.8184 238.243 59.7462L195.907 51.3305L195.902 51.3296Z" fill="#4D4D4C"/>
<path d="M194.944 55.4092C194.577 55.3335 194.338 54.9757 194.409 54.6072C194.486 54.2351 194.844 53.9913 195.213 54.0626L249.53 64.6354L249.539 64.6372C249.907 64.713 250.146 65.0708 250.075 65.4393C249.998 65.8113 249.639 66.0551 249.271 65.9838L194.953 55.4111L194.944 55.4092Z" fill="#4D4D4C"/>
<path d="M194.128 59.9356C193.76 59.8598 193.524 59.5075 193.591 59.1381C193.664 58.7651 194.022 58.5213 194.392 58.5881L228.623 65.0196L228.636 65.0223C229.004 65.0981 229.24 65.4505 229.173 65.8199C229.101 66.1929 228.742 66.4367 228.373 66.3699L194.141 59.9384L194.128 59.9356Z" fill="#4D4D4C"/>
<path d="M184.283 89.5741L168.733 86.3681L172.071 71.8126L187.426 75.1467L184.283 89.5741ZM172.04 84.246L182.18 86.3365L184.161 77.2493L174.146 75.0769L172.04 84.246Z" fill="#F75959"/>
<path d="M174.524 77.9302L177.985 83.5643L194.095 75.5537L193.212 74.7783L178.953 79.591L177.511 76.457L174.524 77.9302Z" fill="#4D4D4C"/>
<path d="M190.691 78.9192C190.328 78.8444 190.091 78.4965 190.152 78.1306C190.216 77.7558 190.571 77.5066 190.946 77.5699L213.588 81.4857C213.964 81.54 214.212 81.9041 214.148 82.2789C214.085 82.6538 213.73 82.903 213.355 82.8397L190.713 78.9239C190.713 78.9239 190.7 78.9211 190.691 78.9192Z" fill="#4D4D4C"/>
<path d="M189.572 82.5336C189.213 82.4596 188.972 82.1108 189.033 81.745C189.096 81.3701 189.452 81.1209 189.826 81.1842L240.652 89.8827C241.027 89.9459 241.276 90.3011 241.212 90.6759C241.149 91.0507 240.794 91.2999 240.419 91.2367L189.594 82.5382C189.594 82.5382 189.581 82.5354 189.572 82.5336Z" fill="#4D4D4C"/>
<path d="M188.972 86.351C188.609 86.2761 188.368 85.9229 188.434 85.5579C188.502 85.184 188.862 84.9357 189.23 85.007L235.694 93.4607C236.075 93.5204 236.317 93.888 236.25 94.2574C236.182 94.6313 235.822 94.8796 235.454 94.8083L188.99 86.3547C188.99 86.3547 188.981 86.3528 188.972 86.351Z" fill="#4D4D4C"/>
<path d="M188.264 90.2356C187.896 90.1598 187.657 89.802 187.728 89.4335C187.8 89.0605 188.159 88.8167 188.532 88.8889L215.869 94.1512L215.878 94.1531C216.245 94.2289 216.485 94.5866 216.413 94.9551C216.341 95.3281 215.982 95.5719 215.609 95.4997L188.273 90.2374L188.264 90.2356Z" fill="#4D4D4C"/>
<path d="M178.782 115.577L163.232 112.371L166.57 97.8156L181.925 101.15L178.782 115.577ZM166.539 110.249L176.678 112.339L178.659 103.252L168.644 101.08L166.539 110.249Z" fill="#F75959"/>
<path d="M169.023 103.933L172.484 109.562L188.593 101.556L187.712 100.776L173.453 105.589L172.009 102.46L169.023 103.933Z" fill="#4D4D4C"/>
<path d="M185.409 105.828C185.042 105.752 184.802 105.394 184.875 105.021C184.951 104.649 185.31 104.405 185.682 104.482L230.619 113.34C230.983 113.411 231.235 113.776 231.158 114.148C231.082 114.52 230.723 114.764 230.351 114.687L185.414 105.828L185.409 105.828Z" fill="#4D4D4C"/>
<path d="M184.495 110.26C184.128 110.184 183.892 109.832 183.959 109.463C184.031 109.09 184.385 108.845 184.759 108.913L234.367 118.187L234.381 118.19C234.748 118.266 234.984 118.618 234.917 118.988C234.845 119.361 234.491 119.605 234.117 119.538L184.509 110.263L184.495 110.26Z" fill="#4D4D4C"/>
<path d="M183.505 114.406C183.137 114.331 182.898 113.973 182.97 113.6C183.047 113.228 183.405 112.989 183.778 113.061L219.691 120.194L219.696 120.195C220.063 120.271 220.303 120.629 220.231 121.002C220.154 121.374 219.796 121.613 219.423 121.541L183.509 114.407L183.505 114.406Z" fill="#4D4D4C"/>
<path d="M174 142.078L158.475 138.775L161.906 124.243L177.236 127.675L174 142.078ZM161.792 136.673L171.918 138.827L173.958 129.751L163.956 127.512L161.793 136.669L161.792 136.673Z" fill="#F75959"/>
<path d="M164.315 130.374L167.738 136.029L183.901 128.123L183.021 127.338L168.729 132.06L167.31 128.922L164.315 130.374Z" fill="#4D4D4C"/>
<path d="M217.296 140.402L180.813 132.744C180.441 132.667 180.203 132.301 180.279 131.933C180.356 131.561 180.718 131.323 181.09 131.399L217.578 139.058C217.95 139.134 218.187 139.501 218.112 139.869C218.035 140.241 217.673 140.479 217.301 140.403L217.296 140.402Z" fill="#4D4D4C"/>
<path d="M179.347 137.204C178.979 137.129 178.735 136.77 178.812 136.398C178.889 136.026 179.246 135.786 179.619 135.859L222.185 144.364C222.553 144.439 222.796 144.803 222.72 145.17C222.643 145.542 222.285 145.782 221.912 145.709L179.347 137.204Z" fill="#4D4D4C"/>
<path d="M178.719 141.562C178.352 141.486 178.113 141.128 178.185 140.755C178.261 140.383 178.619 140.144 178.992 140.216L216.08 147.592L216.085 147.593C216.452 147.668 216.692 148.026 216.62 148.399C216.543 148.771 216.185 149.011 215.812 148.938L178.724 141.563L178.719 141.562Z" fill="#4D4D4C"/>
</g>
<mask id="mask1_11_2739" style="mask-type:alpha" maskUnits="userSpaceOnUse" x="0" y="0" width="323" height="144">
<rect x="0.0389404" width="322" height="144" fill="#D9D9D9"/>
</mask>
<g mask="url(#mask1_11_2739)">
<path d="M214.361 179.06C204.447 174.721 228.421 163.29 228.421 163.29L179.866 162.12L219.54 26.8558L225.478 20.3556C206.95 16.2971 187.16 12.1235 179.343 11.0072C163.005 8.67615 162.782 21.0931 162.782 21.0931L138.596 147.466C135.208 163.899 149.962 164.867 149.962 164.867C149.962 164.867 203.681 178.573 221.066 182.643C222.716 183.03 224.222 183.247 225.608 183.327C221.214 181.791 217.156 180.281 214.361 179.06Z" fill="#69512C"/>
<path d="M179.862 162.12L228.417 163.29C228.417 163.29 204.447 174.722 214.356 179.06C217.151 180.281 221.21 181.79 225.603 183.327C239.975 184.178 240.933 170.123 240.933 170.123C240.933 170.123 267.352 62.3835 270.882 47.5312C274.411 32.6834 264.408 29.0651 264.408 29.0651C264.408 29.0651 245.697 24.7821 225.478 20.3564L219.54 26.8566L179.862 162.12Z" fill="#82612F"/>
<path d="M169.565 26.8382L263.245 44.1386L232.356 160.251C232.356 160.251 230.855 169.003 217.529 166.255C217.529 166.255 217.83 175.042 208.427 173.776C199.024 172.51 146.201 156.25 146.201 156.25L169.565 26.8382Z" fill="white"/>
<path d="M200.852 23.8878C200.852 23.8878 198.985 23.7646 191.74 22.5511L185.766 32.0347L196.949 34.1862L210.714 10.827C201.156 13.2351 200.852 23.8878 200.852 23.8878Z" fill="#B4B4B4"/>
<path d="M189.888 22.2379C181.1 20.7343 180.097 30.944 180.097 30.944L185.77 32.0341L191.744 22.5505C191.161 22.4537 190.547 22.3504 189.892 22.2388L189.888 22.2379Z" fill="#D2D2D2"/>
<path d="M245.677 35.4417C244.591 33.9327 243.149 33.1773 241.913 32.8011L237.266 41.9461L241.495 42.762L245.676 35.4462L245.677 35.4417Z" fill="#D2D2D2"/>
<path d="M247.199 43.8586C247.666 39.7584 246.894 37.1319 245.677 35.4417L241.496 42.7575L247.2 43.8541L247.199 43.8586Z" fill="#B4B4B4"/>
<path d="M222.997 11.9242L220.081 16.6597C220.261 17.4632 220.1 18.271 220.022 18.6475C219.88 19.3378 219.308 21.0893 217.277 21.2172L207.983 36.3109L219.039 38.441L228.973 17.7967C227.941 15.4622 226.117 13.3151 223.005 11.9305L222.997 11.9242Z" fill="#D2D2D2"/>
<path d="M213.69 16.4497C214.562 14.1669 216.541 14.36 217.694 14.593C217.703 14.5949 217.712 14.5967 217.721 14.5986L219.84 10.8951C219.237 10.7613 218.607 10.6409 217.938 10.5544C215.077 10.1748 212.697 10.3195 210.715 10.8221L196.949 34.1858L205.569 35.8463L214.402 20.4097C213.261 19.5295 213.078 18.0573 213.694 16.4507L213.69 16.4497Z" fill="#D2D2D2"/>
<path d="M239.348 32.4375L231.581 30.3548L226.339 39.8445L237.266 41.9478L241.913 32.8028C240.493 32.3698 239.354 32.4339 239.354 32.4339L239.348 32.4375Z" fill="#D2D2D2"/>
<path d="M216.343 21.1694C215.519 21.0416 214.877 20.7784 214.402 20.4093L205.569 35.8459L207.974 36.309L217.268 21.2153C216.989 21.2325 216.678 21.2199 216.339 21.1685L216.343 21.1694Z" fill="#B4B4B4"/>
<path d="M220.077 16.6594L222.993 11.9239C222.06 11.5072 221.014 11.1608 219.839 10.8998L217.721 14.5989C219.281 14.9205 219.882 15.792 220.076 16.6638L220.077 16.6594Z" fill="#B4B4B4"/>
<path d="M229.419 29.7764C229.419 29.7764 231.39 23.276 228.965 17.7899L219.031 38.4341L226.339 39.8427L231.581 30.3529L229.42 29.7719L229.419 29.7764Z" fill="#B4B4B4"/>
<path d="M189.67 61.0926L174.12 57.8866L177.457 43.3312L192.812 46.6653L189.67 61.0926ZM177.427 55.7646L187.566 57.8551L189.547 48.7679L179.532 46.5955L177.427 55.7646Z" fill="#F75959"/>
<path d="M179.906 49.4494L183.367 55.079L199.477 47.0728L198.595 46.2929L184.336 51.1057L182.893 47.9762L179.906 49.4494Z" fill="#4D4D4C"/>
<path d="M195.902 51.3296C195.535 51.2538 195.295 50.8961 195.368 50.5231C195.444 50.151 195.802 49.9117 196.175 49.9839L238.512 58.3996L238.516 58.4005C238.884 58.4763 239.123 58.8341 239.051 59.2071C238.974 59.5791 238.616 59.8184 238.243 59.7462L195.907 51.3305L195.902 51.3296Z" fill="#4D4D4C"/>
<path d="M194.944 55.4092C194.577 55.3335 194.338 54.9757 194.409 54.6072C194.486 54.2351 194.844 53.9913 195.213 54.0626L249.53 64.6354L249.539 64.6372C249.907 64.713 250.146 65.0708 250.075 65.4393C249.998 65.8113 249.639 66.0551 249.271 65.9838L194.953 55.4111L194.944 55.4092Z" fill="#4D4D4C"/>
<path d="M194.128 59.9356C193.76 59.8598 193.524 59.5075 193.591 59.1381C193.663 58.7651 194.022 58.5213 194.392 58.5881L228.623 65.0196L228.636 65.0223C229.004 65.0981 229.24 65.4505 229.173 65.8199C229.101 66.1929 228.742 66.4367 228.373 66.3699L194.141 59.9384L194.128 59.9356Z" fill="#4D4D4C"/>
<path d="M184.283 89.5741L168.733 86.3681L172.071 71.8126L187.426 75.1467L184.283 89.5741ZM172.04 84.246L182.18 86.3365L184.161 77.2493L174.145 75.0769L172.04 84.246Z" fill="#F75959"/>
<path d="M174.524 77.9302L177.984 83.5643L194.095 75.5537L193.212 74.7783L178.953 79.591L177.511 76.457L174.524 77.9302Z" fill="#4D4D4C"/>
<path d="M190.691 78.9192C190.328 78.8444 190.091 78.4965 190.152 78.1306C190.216 77.7558 190.571 77.5066 190.945 77.5699L213.588 81.4857C213.964 81.54 214.212 81.9041 214.148 82.2789C214.085 82.6538 213.73 82.903 213.355 82.8397L190.713 78.9239C190.713 78.9239 190.7 78.9211 190.691 78.9192Z" fill="#4D4D4C"/>
<path d="M189.572 82.5336C189.213 82.4596 188.972 82.1108 189.033 81.745C189.096 81.3701 189.452 81.1209 189.826 81.1842L240.652 89.8827C241.026 89.9459 241.276 90.3011 241.212 90.6759C241.149 91.0507 240.794 91.2999 240.419 91.2367L189.594 82.5382C189.594 82.5382 189.58 82.5354 189.572 82.5336Z" fill="#4D4D4C"/>
<path d="M188.972 86.351C188.609 86.2761 188.368 85.9229 188.434 85.5579C188.502 85.184 188.862 84.9357 189.23 85.007L235.694 93.4607C236.075 93.5204 236.317 93.888 236.25 94.2574C236.182 94.6313 235.822 94.8796 235.454 94.8083L188.99 86.3547C188.99 86.3547 188.981 86.3528 188.972 86.351Z" fill="#4D4D4C"/>
<path d="M188.264 90.2356C187.896 90.1598 187.657 89.802 187.728 89.4335C187.8 89.0605 188.159 88.8167 188.532 88.8889L215.869 94.1512L215.878 94.1531C216.245 94.2289 216.485 94.5866 216.413 94.9551C216.341 95.3281 215.982 95.5719 215.609 95.4997L188.273 90.2374L188.264 90.2356Z" fill="#4D4D4C"/>
<path d="M178.782 115.577L163.232 112.371L166.569 97.8156L181.925 101.15L178.782 115.577ZM166.539 110.249L176.678 112.339L178.659 103.252L168.644 101.08L166.539 110.249Z" fill="#F75959"/>
<path d="M169.023 103.933L172.484 109.562L188.593 101.556L187.712 100.776L173.453 105.589L172.009 102.46L169.023 103.933Z" fill="#4D4D4C"/>
<path d="M185.409 105.828C185.042 105.752 184.802 105.394 184.875 105.021C184.951 104.649 185.31 104.405 185.682 104.482L230.619 113.34C230.983 113.411 231.235 113.776 231.158 114.148C231.081 114.52 230.723 114.764 230.351 114.687L185.414 105.828L185.409 105.828Z" fill="#4D4D4C"/>
<path d="M184.495 110.26C184.128 110.184 183.892 109.832 183.959 109.463C184.031 109.09 184.385 108.845 184.759 108.913L234.367 118.187L234.381 118.19C234.748 118.266 234.984 118.618 234.917 118.988C234.845 119.361 234.491 119.605 234.117 119.538L184.509 110.263L184.495 110.26Z" fill="#4D4D4C"/>
<path d="M183.505 114.406C183.137 114.331 182.898 113.973 182.97 113.6C183.047 113.228 183.405 112.989 183.778 113.061L219.691 120.194L219.696 120.195C220.063 120.271 220.303 120.629 220.231 121.002C220.154 121.374 219.796 121.613 219.423 121.541L183.509 114.407L183.505 114.406Z" fill="#4D4D4C"/>
<path d="M174 142.078L158.475 138.775L161.906 124.243L177.236 127.675L174 142.078ZM161.792 136.673L171.918 138.827L173.958 129.751L163.956 127.512L161.793 136.669L161.792 136.673Z" fill="#F75959"/>
<path d="M164.315 130.374L167.738 136.029L183.901 128.123L183.021 127.338L168.729 132.06L167.31 128.922L164.315 130.374Z" fill="#4D4D4C"/>
<path d="M217.296 140.402L180.813 132.744C180.441 132.667 180.203 132.301 180.279 131.933C180.356 131.561 180.718 131.323 181.09 131.399L217.578 139.058C217.95 139.134 218.187 139.501 218.112 139.869C218.035 140.241 217.673 140.479 217.301 140.403L217.296 140.402Z" fill="#4D4D4C"/>
<path d="M179.347 137.204C178.979 137.129 178.735 136.77 178.812 136.398C178.889 136.026 179.246 135.786 179.619 135.859L222.185 144.364C222.553 144.439 222.796 144.803 222.72 145.17C222.643 145.542 222.285 145.782 221.912 145.709L179.347 137.204Z" fill="#4D4D4C"/>
<path d="M178.719 141.562C178.352 141.486 178.112 141.128 178.185 140.755C178.261 140.383 178.619 140.144 178.992 140.216L216.08 147.592L216.085 147.593C216.452 147.668 216.692 148.026 216.619 148.399C216.543 148.771 216.185 149.011 215.812 148.938L178.724 141.563L178.719 141.562Z" fill="#4D4D4C"/>
</g>
<defs>
<filter id="filter0_f_11_2739" x="93.0389" y="85" width="96.4102" height="96.4102" filterUnits="userSpaceOnUse" color-interpolation-filters="sRGB">
<feFlood flood-opacity="0" result="BackgroundImageFix"/>
<feBlend mode="normal" in="SourceGraphic" in2="BackgroundImageFix" result="shape"/>
<feGaussianBlur stdDeviation="2" result="effect1_foregroundBlur_11_2739"/>
</filter>
<filter id="filter1_f_11_2739" x="31.3707" y="19.1348" width="151.508" height="131.339" filterUnits="userSpaceOnUse" color-interpolation-filters="sRGB">
<feFlood flood-opacity="0" result="BackgroundImageFix"/>
<feBlend mode="normal" in="SourceGraphic" in2="BackgroundImageFix" result="shape"/>
<feGaussianBlur stdDeviation="1" result="effect1_foregroundBlur_11_2739"/>
</filter>
<radialGradient id="paint0_radial_11_2739" cx="0" cy="0" r="1" gradientUnits="userSpaceOnUse" gradientTransform="translate(161.039 100) rotate(90) scale(129 193.5)">
<stop stop-color="#7000E3"/>
<stop offset="1" stop-color="#B971FF"/>
</radialGradient>
<linearGradient id="paint1_linear_11_2739" x1="161.855" y1="132.459" x2="178.185" y2="121.942" gradientUnits="userSpaceOnUse">
<stop offset="0.29" stop-color="#9E9E9E"/>
<stop offset="0.38" stop-color="#A9A9A9"/>
<stop offset="0.56" stop-color="#C9C9C9"/>
<stop offset="0.69" stop-color="#E6E6E6"/>
<stop offset="0.74" stop-color="#EBEBEB"/>
<stop offset="0.87" stop-color="#F8F8F8"/>
<stop offset="1" stop-color="#FDFDFD"/>
</linearGradient>
</defs>
</svg>
