<svg width="323" height="200" viewBox="0 0 323 200" fill="none" xmlns="http://www.w3.org/2000/svg">
<mask id="mask0_11_3625" style="mask-type:alpha" maskUnits="userSpaceOnUse" x="61" y="0" width="201" height="200">
<circle cx="161.422" cy="100" r="100" fill="#D9D9D9"/>
</mask>
<g mask="url(#mask0_11_3625)">
<rect x="11.4221" width="300" height="200" rx="10" fill="url(#paint0_radial_11_3625)"/>
<g style="mix-blend-mode:overlay" opacity="0.15">
<path fill-rule="evenodd" clip-rule="evenodd" d="M-37.3778 319.658C-12.286 210.741 55.4259 -15.2427 143.563 -119.743C156.455 -139.144 175.793 -123.623 182.239 -113.276C182.686 -112.558 183.567 -111.287 184.846 -109.442C201.832 -84.9343 288.962 40.7778 360.55 314.217C361.711 318.653 358.813 323.221 354.271 323.744C326.767 326.911 298.314 325.053 283.417 323.212C280.639 322.869 278.348 320.982 277.217 318.414C265.185 291.11 228.194 243.702 161.611 243.702C90.5403 243.702 59.2931 291.306 45.2014 312.774C41.9111 317.787 39.5561 321.375 37.8478 322.599C31.5371 327.121 -5.44119 328.679 -29.8631 328.999C-34.8113 329.064 -38.4921 324.495 -37.3778 319.658ZM161.611 182.912C190.092 182.912 213.18 159.749 213.18 131.176C213.18 102.603 190.092 79.4402 161.611 79.4402C133.131 79.4402 110.043 102.603 110.043 131.176C110.043 159.749 133.131 182.912 161.611 182.912Z" fill="white"/>
</g>
<g style="mix-blend-mode:overlay" opacity="0.15">
<path fill-rule="evenodd" clip-rule="evenodd" d="M19.342 257.028C37.2817 179.165 85.6934 17.6153 148.708 -57.0894C157.925 -70.9587 171.751 -59.8633 176.36 -52.4663C176.68 -51.9533 177.31 -51.0444 178.224 -49.7254C190.368 -32.2055 252.663 57.663 303.846 253.138C304.676 256.309 302.604 259.575 299.357 259.949C279.693 262.213 259.35 260.885 248.699 259.568C246.713 259.323 245.075 257.974 244.266 256.138C235.664 236.62 209.217 202.728 161.612 202.728C110.799 202.728 88.4583 236.76 78.3832 252.107C76.0308 255.69 74.347 258.255 73.1256 259.13C68.6137 262.363 42.1756 263.477 24.7147 263.706C21.177 263.752 18.5453 260.486 19.342 257.028ZM161.612 159.271C181.975 159.271 198.482 142.713 198.482 122.287C198.482 101.861 181.975 85.3019 161.612 85.3019C141.25 85.3019 124.743 101.861 124.743 122.287C124.743 142.713 141.25 159.271 161.612 159.271Z" fill="white"/>
</g>
</g>
<mask id="mask1_11_3625" style="mask-type:alpha" maskUnits="userSpaceOnUse" x="0" y="0" width="323" height="144">
<rect x="0.422089" width="322" height="144" fill="#D9D9D9"/>
</mask>
<g mask="url(#mask1_11_3625)">
</g>
<g clip-path="url(#clip0_11_3625)">
<path fill-rule="evenodd" clip-rule="evenodd" d="M228.328 152.017C232.01 151.598 234.654 150.427 234.654 149.05C234.654 148.941 234.635 148.832 234.605 148.722L229.774 130.072C229.774 129.246 227.775 128.579 225.314 128.579C222.853 128.579 220.854 129.246 220.854 130.072L216.011 148.777C215.986 148.868 215.974 148.959 215.974 149.05C215.974 150.427 218.624 151.592 222.3 152.017C223.248 152.126 224.257 152.181 225.314 152.181C226.371 152.181 227.38 152.12 228.328 152.017Z" fill="#EF8200"/>
<path fill-rule="evenodd" clip-rule="evenodd" d="M101.468 105.256C101.468 115.71 129.481 124.186 164.038 124.186C198.595 124.186 226.608 115.71 226.608 105.256L226.268 103.278L220.453 69.2168C220.453 77.535 204.465 84.5972 182.237 87.1394C176.525 87.7947 170.406 88.1466 164.038 88.1466C157.67 88.1466 151.545 87.7947 145.839 87.1394C123.611 84.5972 107.623 77.535 107.623 69.2168L101.808 103.278L101.468 105.256Z" fill="#3E3A39"/>
<path fill-rule="evenodd" clip-rule="evenodd" d="M182.243 87.1395C204.471 84.5973 220.459 77.5351 220.459 69.2169C220.459 58.763 195.199 50.2871 164.044 50.2871C132.89 50.2871 107.629 58.763 107.629 69.2169C107.629 77.5351 123.617 84.5973 145.845 87.1395C151.557 87.7948 157.676 88.1467 164.044 88.1467C170.412 88.1467 176.537 87.7948 182.243 87.1395Z" fill="#7385A1"/>
<path fill-rule="evenodd" clip-rule="evenodd" d="M164.482 41.3682L222.452 55.2925L280.422 64.8484V69.2168L222.452 83.1411L164.482 97.0654L106.511 83.1411L47.4899 68.968L47.654 64.5996L106.511 55.2925L164.482 41.3682Z" fill="#717171"/>
<path fill-rule="evenodd" clip-rule="evenodd" d="M139.635 91.0957L106.511 83.1415L47.4899 68.9684L47.654 64.6L91.3626 57.6895L139.762 86.7637L139.635 91.0957Z" fill="#676969"/>
<path fill-rule="evenodd" clip-rule="evenodd" d="M164.482 37L222.452 50.9243L280.422 64.8486L222.452 78.7729L164.482 92.6972L106.511 78.7729L48.5412 64.8486L106.511 50.9243L164.482 37Z" fill="#3E3A39"/>
<path fill-rule="evenodd" clip-rule="evenodd" d="M139.762 86.7637L106.505 78.7731L47.654 64.6L106.505 50.9245L163.667 37.1943C170.266 42.6609 174.064 49.0619 174.064 55.9057C174.064 68.9078 160.368 80.3142 139.762 86.7576V86.7637Z" fill="#474240"/>
<path fill-rule="evenodd" clip-rule="evenodd" d="M222.452 78.7729L164.482 92.6973V97.0657L222.452 83.1414L280.422 69.217V64.8486L222.452 78.7729Z" fill="#595857"/>
<path fill-rule="evenodd" clip-rule="evenodd" d="M131.358 89.112L106.511 83.1418L105.296 82.8506L101.808 103.279L101.468 105.257C101.468 113.357 118.276 120.267 141.913 122.967C153.258 118.86 163.285 112.774 171.324 105.257C175.371 101.477 178.913 97.327 181.873 92.8858L164.482 97.0661L131.358 89.112Z" fill="#474240"/>
<path d="M229.546 128.101C230.508 125.768 229.395 123.098 227.058 122.137C224.722 121.175 222.047 122.288 221.085 124.621C220.122 126.953 221.236 129.624 223.572 130.585C225.909 131.546 228.583 130.434 229.546 128.101Z" fill="#EA7900"/>
<path fill-rule="evenodd" clip-rule="evenodd" d="M165.794 64.4969C168.48 64.4969 170.674 63.3502 170.674 61.9486C170.674 60.5471 168.48 59.4004 165.794 59.4004C163.108 59.4004 160.915 60.5471 160.915 61.9486C160.915 63.3502 163.108 64.4969 165.794 64.4969Z" fill="#686969"/>
<path fill-rule="evenodd" clip-rule="evenodd" d="M165.794 63.7019C168.48 63.7019 170.674 62.5552 170.674 61.1537C170.674 59.7522 168.48 58.6055 165.794 58.6055C163.108 58.6055 160.915 59.7522 160.915 61.1537C160.915 62.5552 163.108 63.7019 165.794 63.7019Z" fill="#888888"/>
<path fill-rule="evenodd" clip-rule="evenodd" d="M165.703 62.1669C165.053 62.0092 164.658 61.3539 164.816 60.7047C164.974 60.0555 165.63 59.6612 166.28 59.8189L226.317 74.6472C226.9 74.7868 227.277 75.3268 227.234 75.9032L226.626 123.44C226.62 124.107 226.067 124.641 225.399 124.635C224.731 124.629 224.196 124.077 224.202 123.41L224.797 76.7647L165.691 62.1669H165.703Z" fill="#EF8200"/>
<path fill-rule="evenodd" clip-rule="evenodd" d="M152.055 131.958C154.091 120.758 161.121 111.676 167.769 111.676C168 111.676 168.219 111.688 168.444 111.706C163.041 108.654 134.621 108.43 110.018 101.719C82.1809 94.123 66.7951 80.2108 60.7064 78.1904C52.2357 78.1904 44.1539 88.7838 42.653 101.853C41.1521 114.921 46.858 124.568 55.274 125.515C91.6117 129.598 135.345 149.062 159.657 158.29C153.064 155.505 149.722 144.766 152.049 131.952L152.055 131.958Z" fill="#DBDCDC"/>
<g style="mix-blend-mode:multiply">
<path fill-rule="evenodd" clip-rule="evenodd" d="M152.055 131.958C152.164 131.363 152.286 130.775 152.426 130.192C142.138 131.048 131.213 130.932 119.953 129.701C87.4675 126.158 59.6308 114.187 43.1756 98.6123C42.9568 99.6741 42.7806 100.754 42.6591 101.858C41.1582 114.927 46.864 124.574 55.28 125.52C91.6178 129.604 135.351 149.067 159.663 158.296C153.07 155.511 149.728 144.772 152.055 131.958Z" fill="#E6E6E6"/>
</g>
<path fill-rule="evenodd" clip-rule="evenodd" d="M165.314 125.199C163.515 125.199 161.626 127.201 160.623 129.956L168.097 131.964C168.778 128.233 167.526 125.205 165.314 125.205V125.199Z" fill="#717171"/>
<path fill-rule="evenodd" clip-rule="evenodd" d="M165.648 145.482C161.219 145.482 158.727 139.427 160.082 131.959C160.21 131.261 160.392 130.587 160.629 129.95C161.638 127.196 163.522 125.194 165.32 125.194C165.393 125.194 165.472 125.194 165.545 125.206L154.887 123.076C153.623 125.758 152.645 128.767 152.067 131.953C149.74 144.773 153.082 155.506 159.675 158.29C160.763 158.752 161.942 158.994 163.199 158.994C172.059 158.994 181.441 146.884 184.151 131.953L176.319 130.794C176.264 131.176 176.197 131.564 176.13 131.953C174.775 139.421 170.084 145.476 165.654 145.476L165.648 145.482Z" fill="#87898B"/>
<path fill-rule="evenodd" clip-rule="evenodd" d="M160.082 131.959C158.727 139.427 161.219 145.482 165.648 145.482C170.078 145.482 174.769 139.427 176.124 131.959C176.197 131.57 176.258 131.182 176.313 130.8C177.838 120.516 174.441 112.276 168.444 111.706C168.225 111.688 168 111.676 167.769 111.676C163.011 111.676 158.059 116.329 154.881 123.082L165.539 125.212C167.617 125.406 168.753 128.355 168.103 131.965L160.629 129.956C160.398 130.593 160.21 131.267 160.082 131.965V131.959Z" fill="#9E9E9F"/>
<path fill-rule="evenodd" clip-rule="evenodd" d="M164.117 145.222C160.666 143.99 158.885 138.517 160.076 131.959C160.204 131.261 160.386 130.587 160.623 129.95C161.632 127.196 163.515 125.194 165.314 125.194C165.387 125.194 165.466 125.194 165.533 125.206L154.875 123.076C153.611 125.758 152.632 128.767 152.055 131.953C151.46 135.235 151.235 138.378 151.344 141.29L164.117 145.216V145.222Z" fill="#B4B5B5"/>
<path fill-rule="evenodd" clip-rule="evenodd" d="M119.163 103.91C108.845 113.211 106.937 125.54 108.425 138.736L91.0891 133.184C87.0239 119.721 95.604 98.0064 104.694 100.282L119.163 103.904V103.91Z" fill="#EF8200"/>
<path fill-rule="evenodd" clip-rule="evenodd" d="M101.352 122.081C102.938 130.842 113.56 141.715 120.998 146.338L113.524 146.386L114.891 152.526C103.072 142.352 95.8531 133.76 95.7924 124.314L101.352 122.081Z" fill="#AF1F24"/>
<path fill-rule="evenodd" clip-rule="evenodd" d="M95.2029 117.439C93.617 126.201 82.9952 137.073 75.5575 141.696L83.0316 141.745L81.6644 147.891C93.4833 137.716 100.702 129.125 100.763 119.678L95.2029 117.446V117.439Z" fill="#C6171F"/>
<path fill-rule="evenodd" clip-rule="evenodd" d="M99.0676 108.363L100.064 110.117L101.383 108.588L102.015 110.505L103.601 109.261L103.85 111.263L105.655 110.353L105.503 112.368L107.447 111.828L106.906 113.769L108.924 113.618L108.012 115.419L110.018 115.662L108.772 117.252L110.692 117.883L109.161 119.199L110.917 120.194L109.161 121.183L110.692 122.5L108.772 123.131L110.018 124.721L108.012 124.969L108.924 126.765L106.906 126.62L107.447 128.561L105.503 128.021L105.655 130.029L103.85 129.125L103.601 131.121L102.015 129.884L101.383 131.795L100.064 130.272L99.0676 132.025L98.0771 130.272L96.7585 131.795L96.1266 129.884L94.5345 131.121L94.2854 129.125L92.4867 130.029L92.6326 128.021L90.6881 128.561L91.2289 126.62L89.2175 126.765L90.1229 124.969L88.1177 124.721L89.3634 123.131L87.4432 122.5L88.9745 121.183L87.2184 120.194L88.9745 119.199L87.4432 117.883L89.3634 117.252L88.1177 115.662L90.1229 115.419L89.2175 113.618L91.2289 113.769L90.6881 111.828L92.6326 112.368L92.4867 110.353L94.2854 111.263L94.5345 109.261L96.1266 110.505L96.7585 108.588L98.0771 110.117L99.0676 108.363Z" fill="#E50013"/>
<path fill-rule="evenodd" clip-rule="evenodd" d="M99.0676 127.298C102.987 127.298 106.183 124.107 106.183 120.194C106.183 116.28 102.987 113.089 99.0676 113.089C95.1483 113.089 91.952 116.28 91.952 120.194C91.952 124.107 95.1483 127.298 99.0676 127.298Z" fill="#F39E44"/>
</g>
<defs>
<radialGradient id="paint0_radial_11_3625" cx="0" cy="0" r="1" gradientUnits="userSpaceOnUse" gradientTransform="translate(161.422 100) rotate(90) scale(129 193.5)">
<stop stop-color="#7000E3"/>
<stop offset="1" stop-color="#B971FF"/>
</radialGradient>
<clipPath id="clip0_11_3625">
<rect width="238" height="122" fill="white" transform="translate(42.4221 37)"/>
</clipPath>
</defs>
</svg>
