<svg width="323" height="200" viewBox="0 0 323 200" fill="none" xmlns="http://www.w3.org/2000/svg">
<mask id="mask0_11_2544" style="mask-type:alpha" maskUnits="userSpaceOnUse" x="62" y="0" width="201" height="200">
<circle cx="162.883" cy="100" r="100" fill="#D9D9D9"/>
</mask>
<g mask="url(#mask0_11_2544)">
<rect x="12.8831" width="300" height="200" rx="10" fill="url(#paint0_radial_11_2544)"/>
<g style="mix-blend-mode:overlay" opacity="0.15">
<path fill-rule="evenodd" clip-rule="evenodd" d="M-35.9167 319.658C-10.825 210.741 56.887 -15.2427 145.024 -119.743C157.916 -139.144 177.254 -123.623 183.7 -113.276C184.147 -112.558 185.028 -111.287 186.307 -109.442C203.293 -84.9343 290.423 40.7778 362.011 314.217C363.172 318.653 360.274 323.221 355.732 323.744C328.228 326.911 299.775 325.053 284.878 323.212C282.1 322.869 279.809 320.982 278.678 318.414C266.646 291.11 229.655 243.702 163.072 243.702C92.0013 243.702 60.7542 291.306 46.6625 312.774C43.3721 317.787 41.0171 321.375 39.3088 322.599C32.9982 327.121 -3.98016 328.679 -28.4021 328.999C-33.3503 329.064 -37.0311 324.495 -35.9167 319.658ZM163.072 182.912C191.553 182.912 214.641 159.749 214.641 131.176C214.641 102.603 191.553 79.4402 163.072 79.4402C134.592 79.4402 111.504 102.603 111.504 131.176C111.504 159.749 134.592 182.912 163.072 182.912Z" fill="white"/>
</g>
<g style="mix-blend-mode:overlay" opacity="0.15">
<path fill-rule="evenodd" clip-rule="evenodd" d="M20.8031 257.028C38.7428 179.165 87.1544 17.6153 150.169 -57.0894C159.386 -70.9587 173.212 -59.8633 177.821 -52.4663C178.141 -51.9533 178.771 -51.0444 179.685 -49.7254C191.829 -32.2055 254.124 57.663 305.307 253.138C306.137 256.309 304.065 259.575 300.818 259.949C281.154 262.213 260.811 260.885 250.16 259.568C248.174 259.323 246.536 257.974 245.727 256.138C237.125 236.62 210.678 202.728 163.073 202.728C112.26 202.728 89.9193 236.76 79.8443 252.107C77.4918 255.69 75.808 258.255 74.5867 259.13C70.0748 262.363 43.6366 263.477 26.1758 263.706C22.638 263.752 20.0063 260.486 20.8031 257.028ZM163.073 159.271C183.436 159.271 199.943 142.713 199.943 122.287C199.943 101.861 183.436 85.3019 163.073 85.3019C142.711 85.3019 126.204 101.861 126.204 122.287C126.204 142.713 142.711 159.271 163.073 159.271Z" fill="white"/>
</g>
<path d="M43.9881 116.945C70.0166 114.694 114.919 97.0357 125.22 92.874C125.104 93.6725 124.991 94.4709 124.878 95.2774C124.082 100.806 123.257 106.516 122.432 112.287C122.283 113.352 122.126 114.42 121.973 115.489C121.856 116.291 121.744 117.094 121.631 117.896C121.474 118.965 121.325 120.038 121.168 121.106C121.144 121.288 121.12 121.465 121.096 121.643C120.939 122.715 120.79 123.784 120.637 124.852C120.267 127.437 119.9 130.018 119.534 132.587C119.023 136.212 118.508 139.809 118.009 143.342C117.917 143.999 117.828 144.652 117.735 145.31C110.19 145.612 102.576 149.859 102.576 149.859C90.1174 135.95 69.0749 139.878 69.0749 139.878C65.9039 126.522 42.3905 117.086 43.9922 116.949L43.9881 116.945Z" fill="#9A1522"/>
<g style="mix-blend-mode:multiply" opacity="0.35">
<path d="M43.9881 116.945C70.0166 114.694 114.919 97.0357 125.22 92.874C125.104 93.6725 124.991 94.4709 124.878 95.2774C124.082 100.806 123.257 106.516 122.432 112.287C122.283 113.352 122.126 114.42 121.973 115.489C121.856 116.291 121.744 117.094 121.631 117.896C121.474 118.965 121.325 120.038 121.168 121.106C121.144 121.288 121.12 121.465 121.096 121.643C120.939 122.715 120.79 123.784 120.637 124.852C120.267 127.437 119.9 130.018 119.534 132.587C119.023 136.212 118.508 139.809 118.009 143.342C117.917 143.999 117.828 144.652 117.735 145.31C111.204 145.572 104.621 148.79 102.975 149.649C103.55 148.088 104.242 146.608 104.592 145.713C106.939 139.684 108.935 132.232 107.723 125.744C106.846 121.062 104.44 115.682 99.3127 114.868C92.4957 113.783 85.6989 118.074 79.5459 120.292C77.0791 121.183 71.4935 123.481 65.2761 125.361C63.3727 125.933 61.4129 126.465 59.4692 126.909C51.9198 120.804 42.9901 117.037 44.0002 116.949L43.9881 116.945Z" fill="#9A1522"/>
</g>
<path d="M134.75 87.043C134.75 87.043 90.7774 103.25 67.425 97.1688C44.0807 91.0836 29.8914 105.504 11.8831 93.6685C11.8831 93.6685 25.7465 123.292 47.457 123.768C69.1715 124.248 134.275 98.3665 134.75 87.043Z" fill="#E03159"/>
<g style="mix-blend-mode:multiply" opacity="0.3">
<path d="M25.1952 98.3777C24.5312 99.6883 24.4306 101.088 24.8209 102.547C26.0443 107.173 30.0443 110.484 33.9599 112.875C41.3362 117.387 50.286 118.718 58.7972 118.262C67.425 117.803 75.6706 115.5 83.8518 112.883C89.7714 110.988 95.7392 109.141 101.325 106.37C106.681 103.713 112.295 100.059 114.697 94.3129C114.87 93.8935 114.846 93.5023 114.697 93.1757C126.226 90.1795 134.75 87.0381 134.75 87.0381C134.275 98.3616 69.1715 124.243 47.457 123.763C25.7465 123.283 11.8831 93.6636 11.8831 93.6636C16.4949 96.6921 20.8571 98.0027 25.1911 98.3737L25.1952 98.3777Z" fill="#B92A4F"/>
</g>
<g style="mix-blend-mode:screen" opacity="0.63">
<path d="M72.6887 108.101C63.751 108.472 54.7086 107.811 45.952 105.968C40.2537 104.77 35.7949 102.028 31.9438 98.3098C42.3221 97.3823 53.1673 93.4505 67.4291 97.1686C78.403 100.024 93.9404 97.959 107.321 94.9668C99.0029 104.657 85.1194 107.581 72.6887 108.101Z" fill="#E03159"/>
</g>
<path d="M255.58 60.8476C255.58 60.8476 166.34 30.204 162.307 29.6596C158.275 29.1152 157.128 30.2725 157.418 31.7121C157.708 33.1558 133.981 192.1 134.641 194.121C135.301 196.141 229.672 219.219 231.113 220.373C233.234 222.075 213.555 225.853 207.511 224.99C201.463 224.123 114.882 200.468 114.56 199.315C114.238 198.161 136.21 42.2654 136.21 42.2654C136.21 42.2654 142.263 45.2697 147.679 43.5397L136.778 38.741C134.999 37.9869 133.132 38.3135 132.842 40.3338C132.553 42.3501 109.413 200.545 110.279 201.984C111.14 203.428 202.795 228.829 206.356 228.845C227.656 228.95 236.872 224.99 238.598 220.663C240.324 216.336 263.069 64.8842 261.914 62.5776C260.763 60.2669 255.58 60.8476 255.58 60.8476Z" fill="#A9451C"/>
<path d="M156.315 40.333C156.315 40.333 148.001 45.7246 136.21 42.2646C136.21 42.2646 113.731 198.019 114.56 199.314C115.389 200.612 181.314 219.509 207.511 224.989C214.59 226.469 235.861 222.751 231.113 220.372C225.93 217.775 136.118 196.285 134.641 194.12C134.593 191.301 156.315 40.333 156.315 40.333Z" fill="#F1E5C8"/>
<g style="mix-blend-mode:multiply" opacity="0.55">
<path d="M137.808 195.386C153.961 200.568 226.473 218.045 231.113 220.372C235.861 222.751 214.59 226.469 207.511 224.989C181.314 219.509 115.389 200.612 114.56 199.313C130.858 199.313 137.808 195.39 137.808 195.39V195.386Z" fill="#DCBF77"/>
</g>
<g style="mix-blend-mode:screen" opacity="0.29">
<path d="M138.778 192.031C137.913 190.515 159.933 31.0988 161.446 29.5664C161.72 29.5866 162.006 29.6188 162.311 29.6592C166.344 30.2036 255.584 60.8472 255.584 60.8472C255.584 60.8472 260.763 60.2665 261.918 62.5772C263.069 64.8838 240.328 216.332 238.602 220.663C238.602 220.663 235.29 218.731 205.93 210.359C176.569 201.984 139.643 193.548 138.782 192.031H138.778Z" fill="#B15631"/>
</g>
<path d="M255.58 60.8468C255.58 60.8468 246.59 144.213 235.837 201.044C235.837 201.044 253.302 63.9721 252.57 59.8145L255.58 60.8468Z" fill="#A9451C"/>
<g style="mix-blend-mode:screen" opacity="0.29">
<path d="M215.567 210.358C215.567 210.358 144.645 193.595 141.868 190.659C139.096 187.723 154.251 80.7507 155.402 79.5974C156.553 78.444 253.568 210.439 215.567 210.358Z" fill="#B15631"/>
</g>
<g style="mix-blend-mode:multiply" opacity="0.55">
<path d="M121.985 199.015L127.16 150.128L119.723 199.172L121.985 199.015Z" fill="#DCBF77"/>
</g>
<g style="mix-blend-mode:multiply" opacity="0.55">
<path d="M128.766 198.128L130.359 183.735L127.16 198.406L128.766 198.128Z" fill="#DCBF77"/>
</g>
<g style="mix-blend-mode:multiply" opacity="0.55">
<path d="M152.118 42.1768L147.776 72.9615L149.945 42.7736L152.118 42.1768Z" fill="#DCBF77"/>
</g>
<g style="mix-blend-mode:multiply" opacity="0.55">
<path d="M128.758 136.213L136.834 74.5508C136.834 74.5508 127.804 127.555 128.758 136.213Z" fill="#DCBF77"/>
</g>
<path d="M202.058 42.6151C202.058 42.6151 201.837 27.9607 200.352 19.3068C200.352 19.3068 196.28 29.6907 194.259 28.247C192.243 26.8034 186.102 18.1494 186.102 18.1494C186.102 18.1494 189.076 27.9647 187.209 37.6268L202.058 42.6151Z" fill="#DC331D"/>
<path d="M182.959 36.2119C182.959 36.2119 179.293 15.7143 165.474 9C165.474 9 170.13 15.0328 169.551 18.1499C169.551 18.1499 160.319 12.0809 149.945 11.9438C149.945 11.9438 164.496 17.8072 164.983 30.3808L182.959 36.2079V36.2119Z" fill="#FFB32E"/>
<g style="mix-blend-mode:multiply" opacity="0.54">
<path d="M187.821 30.163C188.609 31.8123 189.575 33.3649 190.811 34.6674C192.859 36.8208 195.998 37.7927 198.497 35.7643C200.304 34.2964 201.092 31.889 201.479 29.542C201.962 36.3167 202.058 42.6156 202.058 42.6156L187.209 37.6273C187.7 35.0868 187.857 32.5422 187.821 30.163Z" fill="#DC331D"/>
</g>
<g style="mix-blend-mode:multiply" opacity="0.54">
<path d="M168.678 30.461C171.768 32.0902 176.589 33.4371 178.577 29.4287C179.446 27.6745 179.273 25.634 178.782 23.7871C181.901 30.2997 182.959 36.2075 182.959 36.2075L164.983 30.3804C164.951 29.5577 164.855 28.7674 164.714 28.0012C165.993 28.9004 167.305 29.7392 168.678 30.461Z" fill="#FFB32E"/>
</g>
<g style="mix-blend-mode:screen" opacity="0.29">
<path d="M244.642 114.502C246.01 104.396 251.266 63.5863 250.256 61.8563C249.246 60.1263 182.271 35.9631 180.11 36.3663C177.953 36.7696 243.676 121.643 244.642 114.502Z" fill="#B15631"/>
</g>
<g style="mix-blend-mode:multiply" opacity="0.56">
<path d="M110.279 201.984C109.413 200.54 132.552 42.3501 132.842 40.3338C133.055 38.8256 134.146 38.2651 135.426 38.386C132.895 55.1818 116.42 164.663 112.44 201.045C112.44 201.045 146.987 213.231 206.143 226.861C206.143 226.861 228.34 227.785 233.777 222.849C239.21 217.913 239.499 216.36 239.499 216.36C239.061 218.78 238.747 220.284 238.598 220.663C236.872 224.99 227.66 228.95 206.356 228.845C202.795 228.829 111.14 203.424 110.279 201.984Z" fill="#A9451C"/>
</g>
<path d="M61.5859 68.1187C61.0627 68.6349 60.6201 69.2196 60.278 69.8688C64.1614 68.6752 68.753 72.2158 71.26 74.7684C76.0569 79.6519 80.6283 83.7692 87.6224 85.2451C94.0571 86.6001 99.864 85.483 106.029 83.4788C110.745 81.9465 115.498 80.4342 120.516 81.0512C122.347 81.277 124.263 81.3738 126.045 81.8214C127.389 82.1561 131.631 83.3296 132.343 84.5797C129.474 79.543 124.83 77.442 119.8 75.5104C113.051 72.9175 109.498 76.5791 103.003 77.4703C96.9344 78.305 90.2743 77.5469 85.5459 73.3732C81.6304 69.9132 78.4352 65.4975 72.8576 64.8725C69.3405 64.4813 64.3626 65.3765 61.5899 68.1227L61.5859 68.1187Z" fill="#9A1522"/>
<path d="M133.333 74.9098C132.243 70.9941 127.957 67.268 125.414 64.2718C122.894 61.2998 118.677 55.6905 114.629 56.9002C110.939 58.0011 108.637 58.3238 104.693 56.9123C99.4616 55.0372 94.8015 52.2426 91.0993 48.085C89.1878 45.9356 87.884 42.6733 85.5057 41.0038C83.2843 39.4391 79.7148 39.3666 77.1514 39.5198C70.2741 39.9392 64.4109 43.9798 57.6784 40.1085C58.4189 44.1855 63.8917 46.9881 67.4692 47.6213C69.9481 48.0608 73.3204 47.4196 75.578 48.4762C78.4191 49.7989 80.0569 53.3475 82.061 55.5413C87.2723 61.2554 96.0651 66.4575 103.888 66.4575C107.2 66.4575 110.427 65.7881 113.735 65.7881C117.756 65.7881 121.313 67.7519 124.657 69.7844C127.47 71.4902 130.086 74.6517 133.426 75.2727C133.398 75.1517 133.365 75.0348 133.333 74.9138V74.9098Z" fill="#9A1522"/>
<g style="mix-blend-mode:multiply" opacity="0.66">
<path d="M57.6784 40.1046C58.9098 40.8184 60.113 41.2579 61.3002 41.508C61.5416 42.4879 61.8354 43.4557 62.6241 44.1614C65.9722 47.1818 72.4351 44.3993 76.4995 45.3833C78.8014 45.9438 80.2501 47.0366 82.6243 46.3229C84.6525 45.7139 86.2703 44.234 85.1073 42.0725C86.9624 43.1371 88.7934 45.0486 89.1596 47.1455C85.8598 46.5124 84.3427 50.7869 84.9946 53.3436C86.6767 59.9692 97.1275 64.1711 103.216 64.6832C108.427 65.1188 113.228 63.7759 118.383 64.651C124.468 65.6833 122.323 62.1145 120.202 58.6908C122.23 60.3401 124.057 62.6791 125.406 64.2679C127.949 67.2641 132.235 70.9902 133.325 74.9059C133.357 75.0268 133.389 75.1438 133.418 75.2648C130.078 74.6437 127.462 71.4822 124.649 69.7764C121.305 67.744 117.751 65.7841 113.727 65.7801C110.419 65.7801 107.188 66.4455 103.88 66.4495C96.0531 66.4495 87.2642 61.2515 82.0529 55.5333C80.0488 53.3396 78.411 49.7909 75.5699 48.4682C73.3124 47.4117 69.9401 48.0569 67.4612 47.6133C63.8837 46.9761 58.4148 44.1775 57.6703 40.1006L57.6784 40.1046Z" fill="#9A1522"/>
</g>
<g style="mix-blend-mode:multiply" opacity="0.66">
<path d="M60.282 69.8689C60.3504 69.7399 60.4229 69.6108 60.5033 69.4858C64.6 66.0259 71.6544 70.0342 75.3928 72.9296C77.2641 74.3773 78.8858 75.2121 79.747 72.3006C80.2742 70.5182 79.4412 68.6107 78.1816 66.8525C80.8738 68.6067 83.071 71.1795 85.5539 73.3732C87.6143 75.196 90.0489 76.3654 92.6365 77.0389C92.4997 77.8091 91.6828 77.8575 91.1435 78.3898C88.1656 81.3578 88.2622 83.3539 93.1798 83.9668C100.194 84.8419 105.558 81.5634 112.266 80.0673C113.868 79.7084 119.784 79.7568 120.754 78.3373C121.325 77.4986 121.035 76.5751 120.395 75.7404C125.2 77.6115 129.599 79.7407 132.351 84.5838C131.635 83.3297 127.393 82.1562 126.053 81.8215C124.271 81.3739 122.355 81.2771 120.524 81.0513C115.51 80.4343 110.753 81.9465 106.037 83.4789C99.872 85.4831 94.0691 86.6001 87.6304 85.2411C80.6364 83.7652 76.0649 79.6479 71.268 74.7645C68.761 72.2118 64.1694 68.6712 60.286 69.8649L60.282 69.8689Z" fill="#9A1522"/>
</g>
<path d="M256.292 120.096C258.594 119.233 264.642 88.9439 262.626 84.9033C262.051 82.883 241.612 75.092 241.612 75.092C241.612 75.092 237.87 66.7284 232.401 65.2847C226.936 63.8411 221.749 67.3051 221.749 67.3051L211.386 63.5547C211.386 63.5547 210.469 57.5059 204.767 55.4775C196.992 52.7152 190.662 55.4775 190.662 55.4775C190.662 55.4775 167.917 47.9769 159.861 47.6905C151.8 47.4002 128.194 57.7881 128.194 57.7881C128.194 57.7881 121.144 82.9555 125.458 92.7628C125.458 92.7628 149.213 88.6133 156.118 89.0488C163.028 89.4843 256.296 120.096 256.296 120.096H256.292Z" fill="#E03159"/>
<path d="M209.004 55.6996C210.706 55.9012 212.408 55.6391 214.014 54.5946C215.853 53.3969 218.497 49.4894 215.258 47.9852C214.437 47.6061 212.658 48.0739 211.789 48.0618C209.712 48.0336 207.853 47.5658 205.881 47.0013C203.596 46.348 200.292 45.9205 198.473 47.9731C193.559 53.5099 206.135 55.3689 209.008 55.6996H209.004Z" fill="#662A00"/>
<path d="M239.089 67.2719C241.95 67.6187 241.882 64.1184 241.02 62.2594C239.664 59.3197 236.256 58.868 233.713 57.3639C232.207 56.4727 231.737 54.3918 230.187 55.2105C227.712 56.521 228.199 60.5214 229.66 62.4248C231.274 64.5338 235.696 66.4654 238.191 67.0945C238.493 67.1711 238.795 67.2356 239.089 67.2719Z" fill="#662A00"/>
<g style="mix-blend-mode:multiply" opacity="0.37">
<path d="M220.815 107.49C220.344 107.296 219.881 107.075 219.435 106.821C215.169 104.429 214.244 98.2876 214.485 93.88C214.815 87.7706 216.417 81.5766 218.755 75.9309C220.57 71.5475 224.948 66.9705 230.095 69.2812C237.741 72.7089 238.598 81.6895 238.562 88.9239C238.525 96.2713 235.334 104.736 228.079 107.692C225.704 108.659 223.129 108.434 220.815 107.486V107.49Z" fill="#A9451C"/>
</g>
<g style="mix-blend-mode:multiply" opacity="0.37">
<path d="M196.976 98.2214C197.483 98.1851 197.994 98.1205 198.493 98.0278C203.298 97.1124 206.115 91.5756 207.278 87.3172C208.891 81.4176 209.326 75.034 208.891 68.9367C208.553 64.2065 205.841 58.4721 200.231 59.0367C191.897 59.8634 188.247 68.11 185.994 74.9856C183.712 81.966 184.07 91.0111 190.018 96.1123C191.966 97.7818 194.477 98.3907 196.972 98.2214H196.976Z" fill="#A9451C"/>
</g>
<path d="M219.229 106.956C218.759 106.774 218.296 106.564 217.849 106.327C213.584 104.072 212.658 98.2815 212.895 94.1279C213.229 88.3694 214.831 82.5302 217.169 77.2112C218.984 73.0819 223.366 68.767 228.505 70.9446C236.155 74.1747 237.012 82.6391 236.976 89.4582C236.94 96.3862 233.745 104.363 226.489 107.149C224.115 108.061 221.539 107.851 219.229 106.956Z" fill="white"/>
<path d="M195.68 97.5002C196.187 97.4679 196.698 97.4074 197.201 97.3187C202.002 96.4557 204.819 91.2376 205.982 87.2251C207.596 81.6602 208.03 75.6435 207.596 69.9011C207.258 65.4411 204.545 60.0415 198.936 60.5657C190.601 61.348 186.951 69.1188 184.702 75.5992C182.416 82.1804 182.774 90.7053 188.722 95.5161C190.67 97.0929 193.181 97.6615 195.676 97.5042L195.68 97.5002Z" fill="white"/>
<path d="M213.286 93.9759C213.604 88.4432 215.145 82.8339 217.386 77.7206C218.071 76.164 219.137 74.5872 220.477 73.3613C219.833 74.2203 219.294 75.1397 218.887 76.0591C216.646 81.1684 215.105 86.7777 214.787 92.3105C214.557 96.2987 215.443 101.868 219.543 104.029C219.974 104.255 220.417 104.457 220.871 104.634C223.097 105.493 225.568 105.695 227.849 104.82C229.584 104.154 231.077 103.178 232.34 101.985C230.807 103.932 228.827 105.529 226.344 106.481C224.063 107.36 221.588 107.154 219.366 106.3C218.912 106.126 218.469 105.92 218.038 105.695C213.938 103.529 213.048 97.9642 213.282 93.9759H213.286Z" fill="#E7E7E7"/>
<path d="M185.535 76.8087C186.799 73.1713 188.541 69.0904 191.451 66.2998C189.378 68.9291 188.018 72.2237 186.976 75.2159C184.871 81.2768 185.201 89.1243 190.678 93.5561C192.469 95.0038 194.787 95.528 197.08 95.3869C197.551 95.3586 198.018 95.2982 198.481 95.2175C199.99 94.9473 201.282 94.2013 202.376 93.1972C201.036 94.9836 199.274 96.4071 197.04 96.8104C196.573 96.8951 196.107 96.9515 195.636 96.9797C193.342 97.1249 191.028 96.5967 189.233 95.149C183.752 90.7212 183.426 82.8697 185.531 76.8087H185.535Z" fill="#E7E7E7"/>
<path d="M216.69 89.6451C216.69 93.7543 220.014 97.0812 224.111 97.0812C228.207 97.0812 231.535 93.7543 231.535 89.6451C231.535 85.5359 228.211 82.209 224.111 82.209C220.01 82.209 216.69 85.5399 216.69 89.6451Z" fill="url(#paint1_linear_11_2544)"/>
<path d="M219.443 89.6466C219.443 92.2314 221.535 94.3244 224.111 94.3244C226.686 94.3244 228.779 92.2314 228.779 89.6466C228.779 87.0617 226.69 84.9688 224.111 84.9688C221.531 84.9688 219.443 87.0617 219.443 89.6466Z" fill="#332A00"/>
<path d="M225.737 85.4389C225.809 85.0276 225.978 84.6646 226.248 84.3461C226.397 84.213 226.537 84.0799 226.686 83.9468C227.02 83.717 227.387 83.5799 227.789 83.5395C228.111 83.4992 228.413 83.5395 228.702 83.6605C229.004 83.725 229.27 83.8662 229.499 84.0759C229.741 84.2654 229.918 84.4993 230.034 84.7775C230.195 85.0316 230.288 85.3139 230.304 85.6204L230.28 86.2414C230.207 86.6527 230.038 87.0197 229.769 87.3382C229.62 87.4713 229.479 87.6044 229.33 87.7375C228.996 87.9714 228.63 88.1044 228.224 88.1448C227.906 88.1851 227.6 88.1448 227.314 88.0278C227.012 87.9593 226.747 87.8221 226.517 87.6084C226.276 87.4189 226.103 87.185 225.982 86.9068C225.821 86.6527 225.729 86.3704 225.712 86.0599C225.721 85.8542 225.729 85.6486 225.737 85.4429V85.4389Z" fill="white"/>
<path d="M228.694 88.8271C230.135 88.8271 230.36 91.0773 228.908 91.0773C227.455 91.0773 227.242 88.8271 228.694 88.8271Z" fill="white"/>
<path d="M220.079 96.0003C220.167 95.5204 220.368 95.0889 220.682 94.7139C220.855 94.5607 221.024 94.4034 221.193 94.2461C221.588 93.9719 222.022 93.8146 222.493 93.7663C222.867 93.7179 223.226 93.7663 223.568 93.9074C223.922 93.9881 224.232 94.1494 224.505 94.3994C224.787 94.6252 224.996 94.8994 225.137 95.222C225.326 95.5204 225.431 95.8511 225.451 96.214C225.443 96.456 225.435 96.702 225.423 96.9439C225.338 97.4278 225.137 97.8553 224.819 98.2303C224.65 98.3876 224.477 98.5449 224.304 98.6981C223.91 98.9723 223.479 99.1336 223.004 99.178C222.63 99.2264 222.272 99.182 221.93 99.0369C221.576 98.9602 221.262 98.7949 220.992 98.5449C220.71 98.3231 220.501 98.0489 220.364 97.7222C220.175 97.4198 220.067 97.0891 220.046 96.7262C220.054 96.4842 220.067 96.2382 220.075 95.9963L220.079 96.0003Z" fill="white"/>
<path d="M188.155 80.5876C188.155 84.6928 191.479 88.0237 195.575 88.0237C199.672 88.0237 203 84.6928 203 80.5876C203 76.4824 199.676 73.1475 195.575 73.1475C191.475 73.1475 188.155 76.4784 188.155 80.5876Z" fill="url(#paint2_linear_11_2544)"/>
<path d="M190.911 80.5881C190.911 83.1689 193 85.2659 195.579 85.2659C198.159 85.2659 200.251 83.173 200.251 80.5881C200.251 78.0032 198.159 75.9062 195.579 75.9062C193 75.9062 190.911 78.0032 190.911 80.5881Z" fill="#332A00"/>
<path d="M197.201 76.3822C197.273 75.9709 197.442 75.604 197.712 75.2854C197.857 75.1563 198.002 75.0233 198.151 74.8902C198.481 74.6563 198.851 74.5232 199.257 74.4829C199.575 74.4426 199.881 74.4829 200.167 74.6039C200.469 74.6684 200.734 74.8095 200.964 75.0233C201.205 75.2128 201.382 75.4467 201.499 75.7209C201.66 75.979 201.752 76.2572 201.768 76.5677L201.744 77.1888C201.668 77.6001 201.499 77.963 201.233 78.2856C201.088 78.4187 200.943 78.5477 200.795 78.6808C200.461 78.9107 200.094 79.0518 199.688 79.0881C199.37 79.1284 199.064 79.0881 198.774 78.9671C198.473 78.9026 198.207 78.7615 197.978 78.5477C197.736 78.3582 197.559 78.1243 197.442 77.8501C197.281 77.592 197.189 77.3138 197.173 77.0033C197.177 76.7976 197.189 76.5879 197.197 76.3822H197.201Z" fill="white"/>
<path d="M200.159 79.7695C201.603 79.7695 201.825 82.0197 200.372 82.0197C198.919 82.0197 198.706 79.7695 200.159 79.7695Z" fill="white"/>
<path d="M191.547 86.9427C191.636 86.4588 191.837 86.0313 192.151 85.6563C192.32 85.499 192.493 85.3458 192.666 85.1885C193.056 84.9143 193.491 84.753 193.966 84.7086C194.34 84.6602 194.698 84.7086 195.04 84.8498C195.394 84.9264 195.704 85.0917 195.978 85.3418C196.259 85.5635 196.469 85.8378 196.609 86.1644C196.799 86.4668 196.903 86.7975 196.927 87.1605C196.915 87.4024 196.907 87.6484 196.899 87.8904C196.811 88.3743 196.609 88.8017 196.296 89.1808C196.127 89.3381 195.954 89.4913 195.78 89.6486C195.39 89.9228 194.956 90.08 194.481 90.1284C194.102 90.1768 193.748 90.1284 193.406 89.9873C193.052 89.9066 192.742 89.7453 192.469 89.4953C192.187 89.2695 191.978 88.9993 191.837 88.6727C191.648 88.3743 191.539 88.0396 191.519 87.6766C191.531 87.4347 191.539 87.1927 191.547 86.9467V86.9427Z" fill="white"/>
<g style="mix-blend-mode:multiply" opacity="0.5">
<path d="M198.469 47.9684C198.758 47.6417 199.092 47.3836 199.447 47.1699C199.418 47.5046 199.435 47.8716 199.535 48.2829C199.97 50.0492 201.656 51.0533 203.217 51.6824C204.903 52.3639 206.763 52.6704 208.573 52.7833C210.183 52.8801 211.825 52.7914 213.241 51.9445C214.191 51.3719 215.173 50.5008 215.463 49.3878C215.584 48.9281 215.563 48.5007 215.463 48.0974C218.364 49.6742 215.813 53.4204 214.018 54.5899C212.413 55.6343 210.71 55.8964 209.008 55.6948C206.139 55.3601 193.559 53.5051 198.473 47.9684H198.469Z" fill="#662A00"/>
</g>
<g style="mix-blend-mode:multiply" opacity="0.5">
<path d="M230.187 55.2063C230.546 55.0168 230.843 54.9886 231.117 55.0612C231.073 55.0692 231.028 55.0692 230.984 55.0854C229.982 55.3797 229.278 56.2709 229.318 57.3355C229.358 58.4324 229.95 59.4486 230.566 60.3197C231.25 61.2875 232.047 62.1263 232.944 62.8925C234.075 63.8562 235.278 64.7313 236.654 65.2959C237.994 65.8483 239.624 65.8241 240.61 64.6023C240.992 64.1305 241.206 63.5941 241.306 63.0457C241.849 64.9571 241.584 67.5743 239.089 67.2718C238.795 67.2356 238.493 67.171 238.191 67.0944C235.692 66.4653 231.274 64.5297 229.66 62.4247C228.199 60.5213 227.717 56.5169 230.187 55.2104V55.2063Z" fill="#662A00"/>
</g>
<path d="M221.745 112.885C221.745 112.885 195.426 105.155 188.155 100.771C188.155 100.771 186.34 121.701 200.264 126.165C214.187 130.629 221.745 112.885 221.745 112.885Z" fill="#561100"/>
<path d="M210.698 115.163C205.233 116.676 199.744 114.397 195.732 110.647C192.98 108.074 190.787 104.884 189.294 101.404C195.314 104.55 209 108.973 216.533 111.304C215.185 113.276 213.016 114.522 210.698 115.163Z" fill="white"/>
<path d="M199.511 116.913C200.811 119.05 201.829 121.478 202.529 123.873C202.803 124.809 203.028 125.793 203.113 126.781C202.195 126.672 201.249 126.478 200.268 126.164C191.933 123.494 189.241 114.925 188.416 108.473C193.056 109.614 197.044 112.852 199.511 116.913Z" fill="#FF5B59"/>
<path d="M197.885 118.535C200.211 119.515 202.348 121.043 204.026 122.926C204.98 123.999 205.909 125.338 206.364 126.774C204.493 127.015 202.457 126.866 200.263 126.161C195.499 124.636 192.581 121.18 190.799 117.301C193.205 117.216 195.612 117.579 197.881 118.531L197.885 118.535Z" fill="white"/>
<g style="mix-blend-mode:multiply" opacity="0.65">
<path d="M128.186 57.7882C132.754 55.7799 137.406 53.937 142.09 52.2313C145.631 50.9449 149.217 49.6948 152.879 48.7834C155.539 48.118 160.609 47.3196 159.1 52.1385C158.018 55.5662 156.11 58.6229 155.43 62.1353C155.289 62.8652 154.718 71.8538 155.064 71.7611C156.026 71.507 156.456 70.6642 156.319 69.6964C157.828 71.5514 156.412 73.237 155.575 74.9226C154.259 77.56 154.565 79.9553 154.669 82.7741C154.698 83.4919 154.903 89.0206 155.434 89.0286C147.772 88.8714 125.454 92.7709 125.454 92.7709C121.14 82.9636 128.19 57.7962 128.19 57.7962L128.186 57.7882Z" fill="#BB3159"/>
</g>
<g style="mix-blend-mode:multiply" opacity="0.65">
<path d="M128.186 57.7863C132.754 55.7781 137.406 53.9352 142.09 52.2294C143.877 51.5802 145.679 50.939 147.494 50.3462C149.052 49.8381 148.842 53.657 148.585 54.2457C147.897 55.8386 146.05 57.0161 144.669 57.9235C142.416 59.3994 139.985 60.0769 137.768 61.702C135.188 63.5973 126.452 70.5334 132.235 73.832C133.679 74.6547 135.784 74.3321 137.305 74.4046C141.559 74.6143 145.683 74.9531 149.647 73.5215C151.325 77.7517 145.506 79.4131 142.677 80.631C138.045 82.6231 134.13 85.3451 135.909 91.0713C130.114 91.9383 125.45 92.7529 125.45 92.7529C121.136 82.9457 128.186 57.7783 128.186 57.7783V57.7863Z" fill="#BB3159"/>
</g>
<g style="mix-blend-mode:screen" opacity="0.47">
<path d="M160.054 58.6778C161.076 54.7339 163.716 50.7376 166.215 48.9431C166.327 48.8584 166.456 48.7818 166.573 48.7012C176.505 50.8102 190.658 55.48 190.658 55.48C190.658 55.48 196.992 52.7176 204.763 55.48C207.205 56.347 208.763 57.9519 209.753 59.5004C208.388 58.2423 206.698 57.2825 205.008 56.597C202.066 55.4033 198.891 55.0243 195.772 55.6372C183.829 57.9802 179.877 70.5014 180.022 81.2401C179.036 78.7198 178.533 75.6631 178.525 72.9733C178.525 72.6185 166.412 69.7392 164.987 68.9407C161.056 66.7309 158.871 63.2629 160.054 58.6818V58.6778Z" fill="#E03159"/>
<path d="M232.401 65.2878C237.87 66.7314 241.612 75.095 241.612 75.095C241.612 75.095 262.051 82.886 262.626 84.9063C263.721 87.092 262.445 96.9879 260.679 105.735C256.059 105.678 250.24 103.694 246.574 100.96C244.759 103.013 240.578 104.44 237.89 104.614C238.678 104.561 240.847 98.23 241.145 97.363C242.091 94.641 242.517 91.9472 242.449 89.076C242.308 83.2167 240.799 77.0911 237.282 72.3287C235.314 69.6591 232.759 67.5299 229.608 66.437C228.211 65.9491 226.759 65.7192 225.298 65.6749C227.246 65.0377 229.781 64.6022 232.401 65.2918V65.2878Z" fill="#E03159"/>
</g>
<g style="mix-blend-mode:multiply" opacity="0.39">
<path d="M254.393 120.096L254.103 122.088C254.103 122.088 166.774 92.3071 155.808 91.0772C144.846 89.8513 125.011 94.3234 125.011 94.3234L125.45 92.7628C125.45 92.7628 147.772 88.4076 156.11 89.0488C164.448 89.694 250.2 117.829 254.389 120.096H254.393Z" fill="#A9451C"/>
</g>
<path d="M252.787 131.066C255.958 128.965 259.085 126.763 262.196 124.707C266.912 121.577 267.729 116.303 270.554 111.907C271.785 109.996 274.457 108.5 276.212 107.141C278.433 105.423 281.729 101.814 284.381 100.995C284.582 105.161 281.604 109.77 278.043 113.924C275.013 117.468 271.556 120.674 269.29 122.989C263.882 128.518 258.091 133.752 251.737 138.18C252.091 135.8 252.441 133.425 252.791 131.066H252.787Z" fill="#662A00"/>
<path d="M95.9525 128.079C96.1939 127.393 96.4354 126.712 96.6648 126.022C97.3046 124.139 97.7553 120.695 99.031 119.187C99.5541 118.57 100.52 118.308 101.264 118.033C102.52 117.57 103.82 117.203 105.103 116.816C107.679 116.037 110.267 115.348 112.886 114.735C118.979 113.311 124.939 112.497 131.148 112.041C132.79 111.92 140.955 111.355 137.929 115.017C136.416 116.844 131.703 117.267 129.571 117.457C124.625 117.892 119.703 118.61 114.826 119.55C111.027 120.28 105.759 120.344 102.379 122.256C102.347 129.2 96.0611 135.212 92.387 140.644C91.1154 139.192 92.9826 136.164 93.703 134.236C94.4716 132.188 95.2281 130.143 95.9565 128.083L95.9525 128.079Z" fill="#662A00"/>
<path d="M90.6808 129.006C90.6808 134.773 89.9766 140.531 88.7572 146.157C87.9604 149.855 84.395 157.025 87.22 160.468C87.9926 161.408 89.4212 162.025 90.6003 162.251C92.6567 162.638 95.2925 161.529 94.1537 159.041C94.9625 158.928 95.4776 158.355 95.6104 157.525C93.6225 156.222 94.1537 153.48 91.1436 154.42C92.3307 148.871 94.9947 143.878 98.3308 139.1C99.2523 137.789 103.892 132.474 103.381 130.643C102.975 129.2 99.0511 128.692 97.9766 127.268C96.5803 125.433 96.3267 122.917 96.2945 120.687C96.2583 117.993 97.4133 115.602 97.542 113.122C97.6306 111.501 97.4656 111.271 95.8478 112.17C90.8176 114.973 90.6808 124.203 90.6848 129.002L90.6808 129.006Z" fill="#E03159"/>
<path d="M93.2965 129.78C92.1053 127.796 91.3408 125.599 90.886 123.332C91.0913 121.078 91.4977 118.715 92.2985 116.687C92.045 119.973 92.7532 123.28 94.5802 126.183C96.3509 128.986 99.3569 132.216 102.838 132.744C102.335 133.728 101.558 134.853 100.79 135.898C97.6467 134.777 95.035 132.68 93.3005 129.78H93.2965Z" fill="#FF9059"/>
<path d="M97.3006 140.632C95.3408 139.89 93.5178 138.918 92.1013 137.478C91.8881 137.26 91.6788 137.035 91.4816 136.797C91.4534 136.764 91.2241 136.462 91.2563 136.514C91.1919 136.426 91.1275 136.337 91.0631 136.248C90.8257 135.901 90.6164 135.547 90.4112 135.18C90.5279 133.768 90.6084 132.357 90.6446 130.941C90.7412 131.103 90.8216 131.268 90.9182 131.429C92.8418 134.551 95.6305 136.894 98.9545 138.285C98.6849 138.628 98.4636 138.914 98.3268 139.107C97.9726 139.616 97.6306 140.128 97.2966 140.64L97.3006 140.632Z" fill="#FF9059"/>
<g style="mix-blend-mode:multiply" opacity="0.65">
<path d="M92.1617 157.428C91.558 156.94 90.7291 156.674 89.9484 156.622C89.8598 156.493 89.7552 156.331 89.7431 156.299C89.6506 156.106 89.6305 155.952 89.6264 155.666C89.6023 151.936 91.6546 148.613 93.5581 145.556C95.546 142.367 97.8599 139.084 98.6607 135.342C99.043 133.559 99.1195 131.543 98.4555 129.813C97.6748 127.773 96.0329 126.115 95.4535 124.002C94.882 121.909 95.6345 119.643 96.21 117.631C96.7774 115.647 97.2362 113.695 97.1195 111.654C97.5501 111.646 97.5983 112.118 97.542 113.126C97.4132 115.606 96.2583 117.998 96.2945 120.691C96.3267 122.917 96.5762 125.434 97.9766 127.273C99.0551 128.692 102.975 129.204 103.381 130.648C103.896 132.479 99.2523 137.79 98.3308 139.104C94.9947 143.887 92.3307 148.875 91.1435 154.424C94.1536 153.484 93.6225 156.227 95.6104 157.529C95.4776 158.36 94.9665 158.932 94.1536 159.045C94.9826 160.86 93.8076 161.937 92.3065 162.239C94.1778 161.275 93.6064 158.602 92.1617 157.432V157.428Z" fill="#BB3159"/>
</g>
<g style="mix-blend-mode:screen" opacity="0.55">
<path d="M90.2864 147.081C91.6023 145.452 91.3971 140.024 91.6064 137.939C91.9082 134.931 92.1215 131.91 92.0007 128.91C91.8196 124.523 91.1436 118.857 94.1537 115.199C92.3549 121.478 95.3489 125.942 96.2623 131.789C96.7372 134.846 95.1557 137.1 93.9565 139.75C92.8901 142.113 91.872 145.121 90.2864 147.085V147.081Z" fill="#E03159"/>
</g>
</g>
<mask id="mask1_11_2544" style="mask-type:alpha" maskUnits="userSpaceOnUse" x="0" y="0" width="323" height="144">
<rect x="0.883118" width="322" height="144" fill="#D9D9D9"/>
</mask>
<g mask="url(#mask1_11_2544)">
<path d="M43.926 116.945C69.9545 114.694 114.856 97.0357 125.158 92.874C125.042 93.6725 124.929 94.4709 124.816 95.2774C124.019 100.806 123.195 106.516 122.37 112.287C122.221 113.352 122.064 114.42 121.911 115.489C121.794 116.291 121.681 117.094 121.569 117.896C121.412 118.965 121.263 120.038 121.106 121.106C121.082 121.288 121.058 121.465 121.034 121.643C120.877 122.715 120.728 123.784 120.575 124.852C120.205 127.437 119.838 130.018 119.472 132.587C118.961 136.212 118.446 139.809 117.947 143.342C117.854 143.999 117.766 144.652 117.673 145.31C110.128 145.612 102.514 149.859 102.514 149.859C90.0553 135.95 69.0128 139.878 69.0128 139.878C65.8418 126.522 42.3284 117.086 43.9301 116.949L43.926 116.945Z" fill="#9A1522"/>
<g style="mix-blend-mode:multiply" opacity="0.35">
<path d="M43.926 116.945C69.9545 114.694 114.856 97.0357 125.158 92.874C125.042 93.6725 124.929 94.4709 124.816 95.2774C124.019 100.806 123.195 106.516 122.37 112.287C122.221 113.352 122.064 114.42 121.911 115.489C121.794 116.291 121.681 117.094 121.569 117.896C121.412 118.965 121.263 120.038 121.106 121.106C121.082 121.288 121.058 121.465 121.034 121.643C120.877 122.715 120.728 123.784 120.575 124.852C120.205 127.437 119.838 130.018 119.472 132.587C118.961 136.212 118.446 139.809 117.947 143.342C117.854 143.999 117.766 144.652 117.673 145.31C111.142 145.572 104.559 148.79 102.913 149.649C103.488 148.088 104.18 146.608 104.53 145.713C106.876 139.684 108.872 132.232 107.661 125.744C106.784 121.062 104.377 115.682 99.2506 114.868C92.4336 113.783 85.6368 118.074 79.4838 120.292C77.0169 121.183 71.4314 123.481 65.214 125.361C63.3106 125.933 61.3508 126.465 59.4071 126.909C51.8577 120.804 42.928 117.037 43.9381 116.949L43.926 116.945Z" fill="#9A1522"/>
</g>
<path d="M134.688 87.043C134.688 87.043 90.7153 103.25 67.3629 97.1688C44.0186 91.0836 29.8293 105.504 11.821 93.6685C11.821 93.6685 25.6844 123.292 47.3949 123.768C69.1094 124.248 134.213 98.3665 134.688 87.043Z" fill="#E03159"/>
<g style="mix-blend-mode:multiply" opacity="0.3">
<path d="M25.1331 98.3777C24.4691 99.6883 24.3685 101.088 24.7588 102.547C25.9822 107.173 29.9822 110.484 33.8978 112.875C41.2741 117.387 50.2239 118.718 58.7351 118.262C67.3629 117.803 75.6085 115.5 83.7897 112.883C89.7092 110.988 95.6771 109.141 101.263 106.37C106.619 103.713 112.233 100.059 114.635 94.3129C114.808 93.8935 114.784 93.5023 114.635 93.1757C126.164 90.1795 134.688 87.0381 134.688 87.0381C134.213 98.3616 69.1094 124.243 47.3949 123.763C25.6844 123.283 11.821 93.6636 11.821 93.6636C16.4328 96.6921 20.795 98.0027 25.129 98.3737L25.1331 98.3777Z" fill="#B92A4F"/>
</g>
<g style="mix-blend-mode:screen" opacity="0.63">
<path d="M72.6266 108.101C63.6889 108.472 54.6465 107.811 45.8899 105.968C40.1916 104.77 35.7328 102.028 31.8817 98.3098C42.26 97.3823 53.1052 93.4505 67.367 97.1686C78.3409 100.024 93.8783 97.959 107.259 94.9668C98.9408 104.657 85.0573 107.581 72.6266 108.101Z" fill="#E03159"/>
</g>
<path d="M255.518 60.8476C255.518 60.8476 166.277 30.204 162.245 29.6596C158.213 29.1152 157.066 30.2725 157.356 31.7121C157.646 33.1558 133.919 192.1 134.579 194.121C135.239 196.141 229.61 219.219 231.051 220.373C233.172 222.075 213.493 225.853 207.449 224.99C201.401 224.123 114.82 200.468 114.498 199.315C114.176 198.161 136.148 42.2654 136.148 42.2654C136.148 42.2654 142.201 45.2697 147.617 43.5397L136.716 38.741C134.937 37.9869 133.07 38.3135 132.78 40.3338C132.49 42.3501 109.351 200.545 110.217 201.984C111.078 203.428 202.733 228.829 206.294 228.845C227.594 228.95 236.809 224.99 238.536 220.663C240.262 216.336 263.007 64.8842 261.852 62.5776C260.701 60.2669 255.518 60.8476 255.518 60.8476Z" fill="#A9451C"/>
<path d="M156.253 40.333C156.253 40.333 147.939 45.7246 136.148 42.2646C136.148 42.2646 113.669 198.019 114.498 199.314C115.327 200.612 181.251 219.509 207.449 224.989C214.528 226.469 235.799 222.751 231.051 220.372C225.868 217.775 136.056 196.285 134.579 194.12C134.531 191.301 156.253 40.333 156.253 40.333Z" fill="#F1E5C8"/>
<g style="mix-blend-mode:screen" opacity="0.29">
<path d="M138.716 192.031C137.851 190.515 159.871 31.0988 161.384 29.5664C161.658 29.5866 161.943 29.6188 162.249 29.6592C166.281 30.2036 255.522 60.8472 255.522 60.8472C255.522 60.8472 260.701 60.2665 261.856 62.5772C263.007 64.8838 240.266 216.332 238.54 220.663C238.54 220.663 235.228 218.731 205.867 210.359C176.507 201.984 139.581 193.548 138.72 192.031H138.716Z" fill="#B15631"/>
</g>
<path d="M255.518 60.8468C255.518 60.8468 246.528 144.213 235.775 201.044C235.775 201.044 253.24 63.9721 252.508 59.8145L255.518 60.8468Z" fill="#A9451C"/>
<g style="mix-blend-mode:screen" opacity="0.29">
<path d="M215.505 210.358C215.505 210.358 144.583 193.595 141.806 190.659C139.034 187.723 154.189 80.7507 155.34 79.5974C156.491 78.444 253.506 210.439 215.505 210.358Z" fill="#B15631"/>
</g>
<g style="mix-blend-mode:multiply" opacity="0.55">
<path d="M152.056 42.1768L147.714 72.9615L149.883 42.7736L152.056 42.1768Z" fill="#DCBF77"/>
</g>
<g style="mix-blend-mode:multiply" opacity="0.55">
<path d="M128.696 136.213L136.772 74.5508C136.772 74.5508 127.742 127.555 128.696 136.213Z" fill="#DCBF77"/>
</g>
<path d="M201.996 42.6151C201.996 42.6151 201.775 27.9607 200.29 19.3068C200.29 19.3068 196.217 29.6907 194.197 28.247C192.181 26.8034 186.04 18.1494 186.04 18.1494C186.04 18.1494 189.014 27.9647 187.147 37.6268L201.996 42.6151Z" fill="#DC331D"/>
<path d="M182.897 36.2119C182.897 36.2119 179.231 15.7143 165.412 9C165.412 9 170.068 15.0328 169.489 18.1499C169.489 18.1499 160.257 12.0809 149.883 11.9438C149.883 11.9438 164.434 17.8072 164.921 30.3808L182.897 36.2079V36.2119Z" fill="#FFB32E"/>
<g style="mix-blend-mode:multiply" opacity="0.54">
<path d="M187.759 30.163C188.547 31.8123 189.513 33.3649 190.749 34.6674C192.797 36.8208 195.936 37.7927 198.435 35.7643C200.242 34.2964 201.03 31.889 201.417 29.542C201.9 36.3167 201.996 42.6156 201.996 42.6156L187.147 37.6273C187.638 35.0868 187.795 32.5422 187.759 30.163Z" fill="#DC331D"/>
</g>
<g style="mix-blend-mode:multiply" opacity="0.54">
<path d="M168.616 30.461C171.706 32.0902 176.527 33.4371 178.515 29.4287C179.384 27.6745 179.211 25.634 178.72 23.7871C181.839 30.2997 182.897 36.2075 182.897 36.2075L164.921 30.3804C164.889 29.5577 164.793 28.7674 164.652 28.0012C165.931 28.9004 167.243 29.7392 168.616 30.461Z" fill="#FFB32E"/>
</g>
<g style="mix-blend-mode:screen" opacity="0.29">
<path d="M244.58 114.502C245.948 104.396 251.204 63.5863 250.194 61.8563C249.184 60.1263 182.209 35.9631 180.048 36.3663C177.891 36.7696 243.614 121.643 244.58 114.502Z" fill="#B15631"/>
</g>
<g style="mix-blend-mode:multiply" opacity="0.56">
<path d="M110.217 201.984C109.351 200.54 132.49 42.3501 132.78 40.3338C132.993 38.8256 134.084 38.2651 135.364 38.386C132.832 55.1818 116.357 164.663 112.378 201.045C112.378 201.045 146.925 213.231 206.081 226.861C206.081 226.861 228.278 227.785 233.715 222.849C239.148 217.913 239.437 216.36 239.437 216.36C238.999 218.78 238.685 220.284 238.536 220.663C236.809 224.99 227.598 228.95 206.294 228.845C202.733 228.829 111.078 203.424 110.217 201.984Z" fill="#A9451C"/>
</g>
<path d="M61.5238 68.1187C61.0007 68.6349 60.558 69.2196 60.2159 69.8688C64.0993 68.6752 68.6909 72.2158 71.198 74.7684C75.9948 79.6519 80.5663 83.7692 87.5603 85.2451C93.995 86.6001 99.8019 85.483 105.967 83.4788C110.683 81.9465 115.436 80.4342 120.454 81.0512C122.285 81.277 124.201 81.3738 125.983 81.8214C127.327 82.1561 131.569 83.3296 132.281 84.5797C129.412 79.543 124.768 77.442 119.738 75.5104C112.989 72.9175 109.436 76.5791 102.941 77.4703C96.8723 78.305 90.2123 77.5469 85.4838 73.3732C81.5683 69.9132 78.3731 65.4975 72.7956 64.8725C69.2784 64.4813 64.3005 65.3765 61.5278 68.1227L61.5238 68.1187Z" fill="#9A1522"/>
<path d="M133.271 74.9098C132.181 70.9941 127.895 67.268 125.351 64.2718C122.832 61.2998 118.615 55.6905 114.567 56.9002C110.876 58.0011 108.575 58.3238 104.631 56.9123C99.3995 55.0372 94.7395 52.2426 91.0372 48.085C89.1257 45.9356 87.8219 42.6733 85.4436 41.0038C83.2222 39.4391 79.6528 39.3666 77.0894 39.5198C70.212 39.9392 64.3488 43.9798 57.6163 40.1085C58.3568 44.1855 63.8297 46.9881 67.4072 47.6213C69.8861 48.0608 73.2583 47.4196 75.5159 48.4762C78.357 49.7989 79.9948 53.3475 81.9989 55.5413C87.2102 61.2554 96.0031 66.4575 103.826 66.4575C107.138 66.4575 110.365 65.7881 113.673 65.7881C117.693 65.7881 121.251 67.7519 124.595 69.7844C127.408 71.4902 130.024 74.6517 133.364 75.2727C133.335 75.1517 133.303 75.0348 133.271 74.9138V74.9098Z" fill="#9A1522"/>
<g style="mix-blend-mode:multiply" opacity="0.66">
<path d="M57.6163 40.1046C58.8477 40.8184 60.051 41.2579 61.2381 41.508C61.4795 42.4879 61.7733 43.4557 62.562 44.1614C65.9102 47.1818 72.373 44.3993 76.4374 45.3833C78.7393 45.9438 80.188 47.0366 82.5623 46.3229C84.5905 45.7139 86.2082 44.234 85.0452 42.0725C86.9003 43.1371 88.7314 45.0486 89.0976 47.1455C85.7977 46.5124 84.2806 50.7869 84.9325 53.3436C86.6146 59.9692 97.0654 64.1711 103.154 64.6832C108.365 65.1188 113.166 63.7759 118.321 64.651C124.406 65.6833 122.261 62.1145 120.14 58.6908C122.168 60.3401 123.995 62.6791 125.343 64.2679C127.887 67.2641 132.172 70.9902 133.263 74.9059C133.295 75.0268 133.327 75.1438 133.356 75.2648C130.016 74.6437 127.4 71.4822 124.587 69.7764C121.243 67.744 117.689 65.7841 113.665 65.7801C110.357 65.7801 107.126 66.4455 103.818 66.4495C95.991 66.4495 87.2021 61.2515 81.9908 55.5333C79.9868 53.3396 78.3489 49.7909 75.5079 48.4682C73.2503 47.4117 69.878 48.0569 67.3991 47.6133C63.8216 46.9761 58.3527 44.1775 57.6083 40.1006L57.6163 40.1046Z" fill="#9A1522"/>
</g>
<g style="mix-blend-mode:multiply" opacity="0.66">
<path d="M60.22 69.8689C60.2884 69.7399 60.3608 69.6108 60.4413 69.4858C64.5379 66.0259 71.5923 70.0342 75.3308 72.9296C77.202 74.3773 78.8238 75.2121 79.685 72.3006C80.2121 70.5182 79.3791 68.6107 78.1196 66.8525C80.8117 68.6067 83.009 71.1795 85.4919 73.3732C87.5523 75.196 89.9869 76.3654 92.5745 77.0389C92.4376 77.8091 91.6207 77.8575 91.0815 78.3898C88.1036 81.3578 88.2002 83.3539 93.1177 83.9668C100.132 84.8419 105.496 81.5634 112.204 80.0673C113.806 79.7084 119.722 79.7568 120.691 78.3373C121.263 77.4986 120.973 76.5751 120.333 75.7404C125.138 77.6115 129.537 79.7407 132.289 84.5838C131.573 83.3297 127.331 82.1562 125.991 81.8215C124.209 81.3739 122.293 81.2771 120.462 81.0513C115.448 80.4343 110.691 81.9465 105.975 83.4789C99.81 85.4831 94.0071 86.6001 87.5684 85.2411C80.5743 83.7652 76.0028 79.6479 71.206 74.7645C68.6989 72.2118 64.1073 68.6712 60.224 69.8649L60.22 69.8689Z" fill="#9A1522"/>
</g>
<path d="M256.23 120.096C258.532 119.233 264.58 88.9439 262.564 84.9033C261.989 82.8829 241.55 75.092 241.55 75.092C241.55 75.092 237.807 66.7284 232.339 65.2847C226.874 63.8411 221.687 67.3051 221.687 67.3051L211.324 63.5547C211.324 63.5547 210.407 57.5059 204.704 55.4775C196.93 52.7152 190.6 55.4775 190.6 55.4775C190.6 55.4775 167.855 47.9769 159.799 47.6905C151.738 47.4002 128.132 57.7881 128.132 57.7881C128.132 57.7881 121.082 82.9555 125.396 92.7628C125.396 92.7628 149.151 88.6133 156.056 89.0488C162.966 89.4843 256.234 120.096 256.234 120.096H256.23Z" fill="#E03159"/>
<path d="M208.942 55.6996C210.644 55.9012 212.346 55.6391 213.952 54.5946C215.791 53.3969 218.435 49.4894 215.196 47.9852C214.375 47.6061 212.596 48.0739 211.727 48.0618C209.65 48.0336 207.791 47.5658 205.819 47.0013C203.533 46.348 200.23 45.9205 198.411 47.9731C193.497 53.5099 206.073 55.3689 208.946 55.6996H208.942Z" fill="#662A00"/>
<path d="M239.027 67.2719C241.888 67.6187 241.82 64.1184 240.958 62.2594C239.602 59.3197 236.194 58.868 233.65 57.3639C232.145 56.4727 231.675 54.3918 230.125 55.2105C227.65 56.521 228.137 60.5214 229.598 62.4248C231.212 64.5338 235.634 66.4654 238.129 67.0945C238.431 67.1711 238.733 67.2356 239.027 67.2719Z" fill="#662A00"/>
<g style="mix-blend-mode:multiply" opacity="0.37">
<path d="M220.753 107.49C220.282 107.296 219.819 107.075 219.373 106.821C215.107 104.429 214.181 98.2876 214.423 93.88C214.753 87.7706 216.354 81.5766 218.693 75.9309C220.507 71.5475 224.886 66.9705 230.033 69.2812C237.679 72.7089 238.536 81.6895 238.5 88.9239C238.463 96.2713 235.272 104.736 228.017 107.692C225.642 108.659 223.067 108.434 220.753 107.486V107.49Z" fill="#A9451C"/>
</g>
<g style="mix-blend-mode:multiply" opacity="0.37">
<path d="M196.914 98.2214C197.421 98.1851 197.932 98.1205 198.431 98.0278C203.236 97.1124 206.053 91.5756 207.216 87.3172C208.829 81.4176 209.264 75.034 208.829 68.9367C208.491 64.2065 205.779 58.4721 200.169 59.0367C191.835 59.8634 188.185 68.11 185.932 74.9856C183.65 81.966 184.008 91.0111 189.956 96.1123C191.904 97.7818 194.415 98.3907 196.91 98.2214H196.914Z" fill="#A9451C"/>
</g>
<path d="M219.167 106.956C218.697 106.774 218.234 106.564 217.787 106.327C213.521 104.072 212.596 98.2815 212.833 94.1279C213.167 88.3694 214.769 82.5302 217.107 77.2112C218.922 73.0819 223.304 68.767 228.443 70.9446C236.093 74.1747 236.95 82.6391 236.914 89.4582C236.878 96.3862 233.683 104.363 226.427 107.149C224.053 108.061 221.477 107.851 219.167 106.956Z" fill="white"/>
<path d="M195.618 97.5002C196.125 97.4679 196.636 97.4074 197.139 97.3187C201.94 96.4557 204.757 91.2376 205.92 87.2251C207.533 81.6602 207.968 75.6435 207.533 69.9011C207.195 65.4411 204.483 60.0415 198.873 60.5657C190.539 61.348 186.889 69.1188 184.64 75.5992C182.354 82.1804 182.712 90.7053 188.66 95.5161C190.608 97.0929 193.119 97.6615 195.614 97.5042L195.618 97.5002Z" fill="white"/>
<path d="M213.224 93.9759C213.542 88.4432 215.083 82.8339 217.324 77.7206C218.008 76.164 219.075 74.5872 220.415 73.3613C219.771 74.2203 219.232 75.1397 218.825 76.0591C216.584 81.1684 215.043 86.7777 214.725 92.3105C214.495 96.2987 215.381 101.868 219.481 104.029C219.912 104.255 220.355 104.457 220.809 104.634C223.035 105.493 225.506 105.695 227.787 104.82C229.522 104.154 231.015 103.178 232.278 101.985C230.745 103.932 228.765 105.529 226.282 106.481C224 107.36 221.526 107.154 219.304 106.3C218.85 106.126 218.407 105.92 217.976 105.695C213.876 103.529 212.986 97.9642 213.22 93.9759H213.224Z" fill="#E7E7E7"/>
<path d="M185.473 76.8087C186.736 73.1713 188.479 69.0904 191.388 66.2998C189.316 68.9291 187.956 72.2237 186.914 75.2159C184.809 81.2768 185.139 89.1243 190.616 93.5561C192.407 95.0038 194.724 95.528 197.018 95.3869C197.489 95.3586 197.956 95.2982 198.419 95.2175C199.928 94.9473 201.22 94.2013 202.314 93.1972C200.974 94.9836 199.211 96.4071 196.978 96.8104C196.511 96.8951 196.044 96.9515 195.574 96.9797C193.28 97.1249 190.966 96.5967 189.171 95.149C183.69 90.7212 183.364 82.8697 185.469 76.8087H185.473Z" fill="#E7E7E7"/>
<path d="M216.628 89.6451C216.628 93.7543 219.952 97.0812 224.049 97.0812C228.145 97.0812 231.473 93.7543 231.473 89.6451C231.473 85.5359 228.149 82.209 224.049 82.209C219.948 82.209 216.628 85.5399 216.628 89.6451Z" fill="url(#paint3_linear_11_2544)"/>
<path d="M219.381 89.6466C219.381 92.2314 221.473 94.3244 224.049 94.3244C226.624 94.3244 228.717 92.2314 228.717 89.6466C228.717 87.0617 226.628 84.9688 224.049 84.9688C221.469 84.9688 219.381 87.0617 219.381 89.6466Z" fill="#332A00"/>
<path d="M225.675 85.4389C225.747 85.0276 225.916 84.6646 226.186 84.3461C226.334 84.213 226.475 84.0799 226.624 83.9468C226.958 83.717 227.324 83.5799 227.727 83.5395C228.049 83.4992 228.351 83.5395 228.64 83.6605C228.942 83.725 229.208 83.8662 229.437 84.0759C229.679 84.2654 229.856 84.4993 229.972 84.7775C230.133 85.0316 230.226 85.3139 230.242 85.6204L230.218 86.2414C230.145 86.6527 229.976 87.0197 229.707 87.3382C229.558 87.4713 229.417 87.6044 229.268 87.7375C228.934 87.9714 228.568 88.1044 228.161 88.1448C227.844 88.1851 227.538 88.1448 227.252 88.0278C226.95 87.9593 226.685 87.8221 226.455 87.6084C226.214 87.4189 226.041 87.185 225.92 86.9068C225.759 86.6527 225.666 86.3704 225.65 86.0599C225.658 85.8542 225.666 85.6486 225.675 85.4429V85.4389Z" fill="white"/>
<path d="M228.632 88.8271C230.073 88.8271 230.298 91.0773 228.846 91.0773C227.393 91.0773 227.18 88.8271 228.632 88.8271Z" fill="white"/>
<path d="M220.017 96.0003C220.105 95.5204 220.306 95.0889 220.62 94.7139C220.793 94.5607 220.962 94.4034 221.131 94.2461C221.526 93.9719 221.96 93.8146 222.431 93.7663C222.805 93.7179 223.163 93.7663 223.506 93.9074C223.86 93.9881 224.169 94.1494 224.443 94.3994C224.725 94.6252 224.934 94.8994 225.075 95.222C225.264 95.5204 225.369 95.8511 225.389 96.214C225.381 96.456 225.373 96.702 225.361 96.9439C225.276 97.4278 225.075 97.8553 224.757 98.2303C224.588 98.3876 224.415 98.5449 224.242 98.6981C223.848 98.9723 223.417 99.1336 222.942 99.178C222.568 99.2264 222.21 99.182 221.868 99.0369C221.514 98.9602 221.2 98.7949 220.93 98.5449C220.648 98.3231 220.439 98.0489 220.302 97.7222C220.113 97.4198 220.004 97.0891 219.984 96.7262C219.992 96.4842 220.004 96.2382 220.013 95.9963L220.017 96.0003Z" fill="white"/>
<path d="M188.093 80.5876C188.093 84.6928 191.417 88.0237 195.513 88.0237C199.61 88.0237 202.938 84.6928 202.938 80.5876C202.938 76.4824 199.614 73.1475 195.513 73.1475C191.413 73.1475 188.093 76.4784 188.093 80.5876Z" fill="url(#paint4_linear_11_2544)"/>
<path d="M190.849 80.5881C190.849 83.1689 192.938 85.2659 195.517 85.2659C198.097 85.2659 200.189 83.173 200.189 80.5881C200.189 78.0032 198.097 75.9062 195.517 75.9062C192.938 75.9062 190.849 78.0032 190.849 80.5881Z" fill="#332A00"/>
<path d="M197.139 76.3822C197.211 75.9709 197.38 75.604 197.65 75.2854C197.795 75.1563 197.94 75.0233 198.089 74.8902C198.419 74.6563 198.789 74.5232 199.195 74.4829C199.513 74.4426 199.819 74.4829 200.105 74.6039C200.407 74.6684 200.672 74.8095 200.902 75.0233C201.143 75.2128 201.32 75.4467 201.437 75.7209C201.598 75.979 201.69 76.2572 201.706 76.5677L201.682 77.1888C201.606 77.6001 201.437 77.963 201.171 78.2856C201.026 78.4187 200.881 78.5477 200.733 78.6808C200.399 78.9107 200.032 79.0518 199.626 79.0881C199.308 79.1284 199.002 79.0881 198.712 78.9671C198.411 78.9026 198.145 78.7615 197.916 78.5477C197.674 78.3582 197.497 78.1243 197.38 77.8501C197.219 77.592 197.127 77.3138 197.111 77.0033C197.115 76.7976 197.127 76.5879 197.135 76.3822H197.139Z" fill="white"/>
<path d="M200.097 79.7695C201.541 79.7695 201.763 82.0197 200.31 82.0197C198.857 82.0197 198.644 79.7695 200.097 79.7695Z" fill="white"/>
<path d="M191.485 86.9427C191.574 86.4588 191.775 86.0313 192.089 85.6563C192.258 85.499 192.431 85.3458 192.604 85.1885C192.994 84.9143 193.429 84.753 193.904 84.7086C194.278 84.6602 194.636 84.7086 194.978 84.8498C195.332 84.9264 195.642 85.0917 195.916 85.3418C196.197 85.5635 196.407 85.8378 196.547 86.1644C196.737 86.4668 196.841 86.7975 196.865 87.1605C196.853 87.4024 196.845 87.6484 196.837 87.8904C196.749 88.3743 196.547 88.8017 196.234 89.1808C196.065 89.3381 195.892 89.4913 195.718 89.6486C195.328 89.9228 194.894 90.08 194.419 90.1284C194.04 90.1768 193.686 90.1284 193.344 89.9873C192.99 89.9066 192.68 89.7453 192.407 89.4953C192.125 89.2695 191.916 88.9993 191.775 88.6727C191.586 88.3743 191.477 88.0396 191.457 87.6766C191.469 87.4347 191.477 87.1927 191.485 86.9467V86.9427Z" fill="white"/>
<g style="mix-blend-mode:multiply" opacity="0.5">
<path d="M198.407 47.9684C198.696 47.6417 199.03 47.3836 199.385 47.1699C199.356 47.5046 199.372 47.8716 199.473 48.2829C199.908 50.0492 201.594 51.0533 203.155 51.6824C204.841 52.3639 206.7 52.6704 208.511 52.7833C210.121 52.8801 211.763 52.7913 213.179 51.9445C214.129 51.3719 215.111 50.5008 215.401 49.3878C215.522 48.9281 215.501 48.5007 215.401 48.0974C218.302 49.6742 215.751 53.4204 213.956 54.5899C212.35 55.6343 210.648 55.8964 208.946 55.6948C206.077 55.3601 193.497 53.5051 198.411 47.9684H198.407Z" fill="#662A00"/>
</g>
<g style="mix-blend-mode:multiply" opacity="0.5">
<path d="M230.125 55.2063C230.483 55.0168 230.781 54.9886 231.055 55.0612C231.011 55.0692 230.966 55.0692 230.922 55.0854C229.92 55.3797 229.216 56.2709 229.256 57.3355C229.296 58.4324 229.888 59.4486 230.504 60.3197C231.188 61.2875 231.984 62.1263 232.882 62.8925C234.013 63.8562 235.216 64.7313 236.592 65.2959C237.932 65.8483 239.562 65.8241 240.548 64.6023C240.93 64.1305 241.144 63.5941 241.244 63.0457C241.787 64.9571 241.522 67.5743 239.027 67.2718C238.733 67.2356 238.431 67.171 238.129 67.0944C235.63 66.4653 231.212 64.5297 229.598 62.4247C228.137 60.5213 227.654 56.5169 230.125 55.2104V55.2063Z" fill="#662A00"/>
</g>
<path d="M221.683 112.885C221.683 112.885 195.364 105.155 188.093 100.771C188.093 100.771 186.278 121.701 200.201 126.165C214.125 130.629 221.683 112.885 221.683 112.885Z" fill="#561100"/>
<path d="M210.636 115.163C205.171 116.676 199.682 114.397 195.67 110.647C192.918 108.074 190.724 104.884 189.231 101.404C195.252 104.55 208.938 108.973 216.471 111.304C215.123 113.276 212.954 114.522 210.636 115.163Z" fill="white"/>
<path d="M199.449 116.913C200.749 119.05 201.767 121.478 202.467 123.873C202.741 124.809 202.966 125.793 203.051 126.781C202.133 126.672 201.187 126.478 200.205 126.164C191.871 123.494 189.179 114.925 188.354 108.473C192.994 109.614 196.982 112.852 199.449 116.913Z" fill="#FF5B59"/>
<path d="M197.823 118.535C200.149 119.515 202.286 121.043 203.964 122.926C204.918 123.999 205.847 125.338 206.302 126.774C204.431 127.015 202.395 126.866 200.201 126.161C195.437 124.636 192.519 121.18 190.737 117.301C193.143 117.216 195.549 117.579 197.819 118.531L197.823 118.535Z" fill="white"/>
<g style="mix-blend-mode:multiply" opacity="0.65">
<path d="M128.124 57.7882C132.692 55.7799 137.344 53.937 142.028 52.2313C145.569 50.9449 149.155 49.6948 152.817 48.7834C155.477 48.118 160.547 47.3196 159.038 52.1385C157.955 55.5662 156.048 58.6229 155.368 62.1353C155.227 62.8652 154.656 71.8538 155.002 71.7611C155.963 71.507 156.394 70.6642 156.257 69.6964C157.766 71.5514 156.35 73.237 155.513 74.9226C154.197 77.56 154.503 79.9553 154.607 82.7741C154.635 83.4919 154.841 89.0206 155.372 89.0286C147.71 88.8714 125.392 92.7709 125.392 92.7709C121.078 82.9636 128.128 57.7962 128.128 57.7962L128.124 57.7882Z" fill="#BB3159"/>
</g>
<g style="mix-blend-mode:multiply" opacity="0.65">
<path d="M128.124 57.7863C132.692 55.7781 137.344 53.9352 142.028 52.2294C143.814 51.5802 145.617 50.939 147.432 50.3462C148.99 49.8381 148.78 53.657 148.523 54.2457C147.835 55.8386 145.988 57.0161 144.607 57.9234C142.354 59.3994 139.923 60.0769 137.706 61.702C135.126 63.5973 126.39 70.5334 132.172 73.832C133.617 74.6547 135.722 74.3321 137.243 74.4046C141.497 74.6143 145.621 74.9531 149.585 73.5215C151.263 77.7517 145.444 79.4131 142.615 80.631C137.983 82.6231 134.068 85.3451 135.847 91.0713C130.052 91.9383 125.388 92.7529 125.388 92.7529C121.074 82.9457 128.124 57.7783 128.124 57.7783V57.7863Z" fill="#BB3159"/>
</g>
<g style="mix-blend-mode:screen" opacity="0.47">
<path d="M159.992 58.6778C161.014 54.7339 163.654 50.7376 166.153 48.9431C166.265 48.8584 166.394 48.7818 166.511 48.7012C176.443 50.8102 190.596 55.48 190.596 55.48C190.596 55.48 196.93 52.7176 204.7 55.48C207.143 56.347 208.701 57.9519 209.69 59.5004C208.326 58.2423 206.636 57.2825 204.946 56.597C202.004 55.4033 198.829 55.0243 195.71 55.6372C183.767 57.9802 179.815 70.5014 179.96 81.2401C178.974 78.7198 178.471 75.6631 178.463 72.9733C178.463 72.6185 166.35 69.7392 164.925 68.9407C160.994 66.7309 158.809 63.2629 159.992 58.6818V58.6778Z" fill="#E03159"/>
<path d="M232.339 65.2878C237.807 66.7314 241.55 75.095 241.55 75.095C241.55 75.095 261.989 82.886 262.564 84.9063C263.659 87.092 262.383 96.9879 260.617 105.735C255.997 105.678 250.178 103.694 246.512 100.96C244.697 103.013 240.516 104.44 237.828 104.614C238.616 104.561 240.785 98.23 241.083 97.363C242.029 94.641 242.455 91.9472 242.387 89.076C242.246 83.2167 240.737 77.0911 237.22 72.3287C235.252 69.6591 232.697 67.5299 229.546 66.437C228.149 65.9491 226.697 65.7192 225.236 65.6749C227.184 65.0377 229.719 64.6022 232.339 65.2918V65.2878Z" fill="#E03159"/>
</g>
<g style="mix-blend-mode:multiply" opacity="0.39">
<path d="M254.331 120.096L254.041 122.088C254.041 122.088 166.712 92.3071 155.746 91.0772C144.784 89.8513 124.949 94.3234 124.949 94.3234L125.388 92.7628C125.388 92.7628 147.71 88.4076 156.048 89.0488C164.386 89.694 250.138 117.829 254.327 120.096H254.331Z" fill="#A9451C"/>
</g>
<path d="M252.725 131.066C255.896 128.965 259.023 126.763 262.134 124.707C266.85 121.577 267.667 116.303 270.492 111.907C271.723 109.996 274.395 108.5 276.15 107.141C278.371 105.423 281.667 101.814 284.319 100.995C284.52 105.161 281.542 109.77 277.981 113.924C274.951 117.468 271.494 120.674 269.228 122.989C263.82 128.518 258.029 133.752 251.675 138.18C252.029 135.8 252.379 133.425 252.729 131.066H252.725Z" fill="#662A00"/>
<path d="M281.498 113.191C283.293 107.711 285.76 102.468 288.673 97.5C290.589 94.2337 296.207 88.5396 294.597 84.3901C294.158 83.2529 292.995 82.2206 291.945 81.6399C290.11 80.6277 287.261 80.8575 287.567 83.5755C286.762 83.4303 286.094 83.8094 285.707 84.5554C287.192 86.4185 285.832 88.8542 288.987 88.9066C286.13 93.8062 282.041 97.7138 277.381 101.21C276.098 102.17 270.033 105.759 269.949 107.662C269.88 109.162 273.45 110.872 274.033 112.558C274.786 114.739 274.242 117.207 273.574 119.337C272.77 121.909 270.927 123.817 270.029 126.131C269.446 127.644 269.526 127.918 271.345 127.567C276.995 126.478 280.005 117.756 281.498 113.195V113.191Z" fill="#E03159"/>
<path d="M279.253 111.634C279.764 113.892 279.804 116.219 279.53 118.509C278.633 120.586 277.51 122.703 276.118 124.381C277.385 121.336 277.744 117.973 276.915 114.646C276.11 111.428 274.259 107.419 271.12 105.827C271.904 105.048 272.991 104.222 274.045 103.476C276.685 105.524 278.508 108.331 279.253 111.634Z" fill="#FF9059"/>
<path d="M278.838 100.073C280.468 101.392 281.892 102.884 282.79 104.699C282.927 104.973 283.051 105.251 283.164 105.537C283.18 105.578 283.305 105.937 283.293 105.88C283.325 105.985 283.357 106.086 283.389 106.191C283.51 106.594 283.599 107.001 283.675 107.413C283.124 108.715 282.605 110.03 282.13 111.364C282.09 111.183 282.066 110.998 282.021 110.816C281.168 107.251 279.249 104.15 276.528 101.791C276.89 101.549 277.188 101.344 277.377 101.206C277.868 100.835 278.355 100.456 278.838 100.073Z" fill="#FF9059"/>
<g style="mix-blend-mode:multiply" opacity="0.65">
<path d="M288.959 85.7242C289.377 86.3775 290.082 86.8937 290.806 87.184C290.846 87.3332 290.903 87.5228 290.903 87.555C290.927 87.7647 290.903 87.9179 290.814 88.1922C289.671 91.7449 286.693 94.2572 283.933 96.5678C281.051 98.9753 277.828 101.367 275.9 104.669C274.979 106.246 274.283 108.133 274.371 109.988C274.476 112.17 275.522 114.259 275.41 116.449C275.301 118.622 273.876 120.534 272.705 122.264C271.55 123.973 270.5 125.679 269.977 127.659C269.566 127.53 269.671 127.07 270.033 126.127C270.931 123.812 272.774 121.905 273.579 119.332C274.247 117.207 274.79 114.739 274.037 112.553C273.454 110.867 269.884 109.158 269.953 107.657C270.037 105.758 276.102 102.165 277.385 101.205C282.045 97.705 286.134 93.8015 288.991 88.9019C285.836 88.8535 287.196 86.4138 285.711 84.5507C286.098 83.8047 286.766 83.4256 287.571 83.5708C287.349 81.5868 288.806 80.9335 290.323 81.119C288.247 81.4456 287.953 84.1636 288.963 85.7283L288.959 85.7242Z" fill="#BB3159"/>
</g>
<g style="mix-blend-mode:screen" opacity="0.55">
<path d="M287.51 96.1447C285.752 97.2819 284.251 102.504 283.406 104.415C282.178 107.178 281.035 109.985 280.218 112.868C279.015 117.09 277.896 122.687 273.896 125.216C277.566 119.816 276.11 114.638 277.067 108.799C277.566 105.742 279.78 104.097 281.74 101.96C283.49 100.048 285.394 97.5117 287.514 96.1406L287.51 96.1447Z" fill="#E03159"/>
</g>
<path d="M95.8904 128.079C96.1318 127.393 96.3732 126.712 96.6026 126.022C97.2425 124.139 97.6932 120.695 98.9689 119.187C99.492 118.57 100.458 118.308 101.202 118.033C102.458 117.57 103.758 117.203 105.041 116.816C107.617 116.037 110.204 115.348 112.824 114.735C118.917 113.311 124.877 112.497 131.086 112.041C132.728 111.92 140.893 111.355 137.867 115.017C136.354 116.844 131.641 117.267 129.508 117.457C124.563 117.892 119.641 118.61 114.764 119.55C110.965 120.28 105.697 120.344 102.317 122.256C102.285 129.2 95.999 135.212 92.3249 140.644C91.0533 139.192 92.9205 136.164 93.6408 134.236C94.4095 132.188 95.166 130.143 95.8944 128.083L95.8904 128.079Z" fill="#662A00"/>
<path d="M90.6187 129.006C90.6187 134.773 89.9144 140.531 88.6951 146.157C87.8983 149.855 84.3329 157.025 87.1578 160.468C87.9305 161.408 89.3591 162.025 90.5382 162.251C92.5945 162.638 95.2304 161.529 94.0915 159.041C94.9004 158.928 95.4155 158.355 95.5483 157.525C93.5603 156.222 94.0915 153.48 91.0814 154.42C92.2686 148.871 94.9326 143.878 98.2686 139.1C99.1902 137.789 103.83 132.474 103.319 130.643C102.913 129.2 98.989 128.692 97.9145 127.268C96.5181 125.433 96.2646 122.917 96.2324 120.687C96.1962 117.993 97.3511 115.602 97.4799 113.122C97.5684 111.501 97.4034 111.271 95.7857 112.17C90.7555 114.973 90.6187 124.203 90.6227 129.002L90.6187 129.006Z" fill="#E03159"/>
<path d="M93.2344 129.78C92.0432 127.796 91.2786 125.599 90.8239 123.332C91.0291 121.078 91.4356 118.715 92.2364 116.687C91.9828 119.973 92.6911 123.28 94.5181 126.183C96.2887 128.986 99.2948 132.216 102.776 132.744C102.273 133.728 101.496 134.853 100.727 135.898C97.5845 134.777 94.9728 132.68 93.2384 129.78H93.2344Z" fill="#FF9059"/>
<path d="M97.2385 140.632C95.2787 139.89 93.4557 138.918 92.0392 137.478C91.8259 137.26 91.6167 137.035 91.4195 136.797C91.3913 136.764 91.162 136.462 91.1941 136.514C91.1298 136.426 91.0654 136.337 91.001 136.248C90.7636 135.901 90.5543 135.547 90.3491 135.18C90.4658 133.768 90.5463 132.357 90.5825 130.941C90.6791 131.103 90.7595 131.268 90.8561 131.429C92.7797 134.551 95.5684 136.894 98.8924 138.285C98.6228 138.628 98.4015 138.914 98.2647 139.107C97.9105 139.616 97.5685 140.128 97.2345 140.64L97.2385 140.632Z" fill="#FF9059"/>
<g style="mix-blend-mode:multiply" opacity="0.65">
<path d="M92.0995 157.428C91.4959 156.94 90.6669 156.674 89.8862 156.622C89.7977 156.493 89.6931 156.331 89.681 156.299C89.5884 156.106 89.5683 155.952 89.5643 155.666C89.5402 151.936 91.5925 148.613 93.4959 145.556C95.4839 142.367 97.7978 139.084 98.5986 135.342C98.9809 133.559 99.0574 131.543 98.3934 129.813C97.6127 127.773 95.9708 126.115 95.3913 124.002C94.8199 121.909 95.5724 119.643 96.1479 117.631C96.7153 115.647 97.174 113.695 97.0573 111.654C97.4879 111.646 97.5362 112.118 97.4799 113.126C97.3511 115.606 96.1962 117.998 96.2324 120.691C96.2646 122.917 96.5141 125.434 97.9145 127.273C98.993 128.692 102.913 129.204 103.319 130.648C103.834 132.479 99.1902 137.79 98.2686 139.104C94.9326 143.887 92.2686 148.875 91.0814 154.424C94.0915 153.484 93.5603 156.227 95.5483 157.529C95.4155 158.36 94.9044 158.932 94.0915 159.045C94.9205 160.86 93.7454 161.937 92.2444 162.239C94.1157 161.275 93.5442 158.602 92.0995 157.432V157.428Z" fill="#BB3159"/>
</g>
<g style="mix-blend-mode:screen" opacity="0.55">
<path d="M90.2243 147.081C91.5402 145.452 91.335 140.024 91.5442 137.939C91.846 134.931 92.0593 131.91 91.9386 128.91C91.7575 124.523 91.0814 118.857 94.0915 115.199C92.2927 121.478 95.2867 125.942 96.2002 131.789C96.6751 134.846 95.0936 137.1 93.8943 139.75C92.8279 142.113 91.8098 145.121 90.2243 147.085V147.081Z" fill="#E03159"/>
</g>
</g>
<defs>
<radialGradient id="paint0_radial_11_2544" cx="0" cy="0" r="1" gradientUnits="userSpaceOnUse" gradientTransform="translate(162.883 100) rotate(90) scale(129 193.5)">
<stop stop-color="#7000E3"/>
<stop offset="1" stop-color="#B971FF"/>
</radialGradient>
<linearGradient id="paint1_linear_11_2544" x1="227.833" y1="83.4309" x2="220.039" y2="96.3974" gradientUnits="userSpaceOnUse">
<stop stop-color="#FFD91A"/>
<stop offset="1" stop-color="#90B131"/>
</linearGradient>
<linearGradient id="paint2_linear_11_2544" x1="199.302" y1="74.3734" x2="191.503" y2="87.3399" gradientUnits="userSpaceOnUse">
<stop stop-color="#FFD91A"/>
<stop offset="1" stop-color="#90B131"/>
</linearGradient>
<linearGradient id="paint3_linear_11_2544" x1="227.771" y1="83.4309" x2="219.977" y2="96.3974" gradientUnits="userSpaceOnUse">
<stop stop-color="#FFD91A"/>
<stop offset="1" stop-color="#90B131"/>
</linearGradient>
<linearGradient id="paint4_linear_11_2544" x1="199.24" y1="74.3734" x2="191.441" y2="87.3399" gradientUnits="userSpaceOnUse">
<stop stop-color="#FFD91A"/>
<stop offset="1" stop-color="#90B131"/>
</linearGradient>
</defs>
</svg>
