<svg width="152" height="37" viewBox="0 0 152 37" fill="none" xmlns="http://www.w3.org/2000/svg">
<path d="M15.8997 13.1405C15.2144 12.4252 14.3149 11.8427 13.197 11.3887C12.0791 10.9389 10.8112 10.7119 9.38058 10.7119C7.85573 10.7119 6.37372 10.9989 4.93025 11.5686C3.74806 12.0354 2.68581 12.6651 1.7392 13.4532C1.39654 13.7359 1.37941 14.2542 1.69209 14.5711L3.67096 16.5757C3.94509 16.8541 4.38199 16.8713 4.69039 16.6357C5.2772 16.1817 5.86401 15.8519 6.45082 15.6505C7.21752 15.3893 7.95425 15.2565 8.66527 15.2565C10.143 15.2565 11.2738 15.612 12.0619 16.3273C12.8458 17.0426 13.2398 18.0063 13.2398 19.2228H10.2715C8.9137 19.2228 7.64585 19.3641 6.46795 19.6511C5.28576 19.9381 4.25777 20.3707 3.37542 20.9532C2.49306 21.5358 1.79488 22.2639 1.28517 23.1334C0.775461 24.0029 0.518463 25.0224 0.518463 26.1917C0.518463 27.1212 0.676947 27.965 1.00248 28.7274C1.32372 29.4898 1.78203 30.1537 2.37741 30.7106C2.97279 31.2717 3.67525 31.7 4.48479 31.9956C5.29433 32.2954 6.1981 32.4453 7.19611 32.4453H17.5831C18.0028 32.4453 18.3455 32.1026 18.3455 31.6829V20.465C18.3455 18.7259 18.1613 17.2953 17.7972 16.1774C17.4332 15.0594 16.7992 14.0443 15.8997 13.1405ZM13.2056 28.5732L8.89657 28.6332C6.99051 28.6332 5.44424 27.3568 5.44424 25.7848C5.44424 24.2128 6.99051 22.9364 8.89657 22.9364H13.2056V28.5732ZM105.258 13.2819C104.508 12.5923 103.651 12.0826 102.683 11.7485C101.72 11.4144 100.713 11.2473 99.6637 11.2473C99.1882 11.2473 98.6914 11.2944 98.1817 11.3887C97.6677 11.4829 97.1665 11.62 96.6825 11.7999C96.1942 11.9798 95.723 12.2025 95.269 12.4638C94.8193 12.7251 94.4338 13.012 94.1254 13.3204L94.1083 12.528C94.0997 12.1125 93.7613 11.7827 93.3458 11.7827H89.705C89.2853 11.7827 88.9426 12.1254 88.9426 12.5452V31.6786C88.9426 32.0984 89.2853 32.441 89.705 32.441H93.3287C93.7485 32.441 94.0911 32.0984 94.0911 31.6786L94.1083 20.208C94.1083 20.0837 94.1554 19.5912 94.1554 19.4284C94.1554 17.1069 96.0357 15.2265 98.3573 15.2265C100.679 15.2265 102.559 17.1069 102.559 19.4284C102.559 19.4327 102.559 19.437 102.559 19.4412C102.581 19.6554 102.598 19.8781 102.598 20.1137V31.6829C102.598 32.1026 102.94 32.4453 103.36 32.4453H106.984C107.404 32.4453 107.746 32.1026 107.746 31.6829V19.8567C107.746 18.3576 107.519 17.0597 107.065 15.9632C106.611 14.8667 106.007 13.9715 105.258 13.2819ZM151.98 20.6534C151.98 15.1622 147.529 10.7119 142.038 10.7119C136.547 10.7119 132.097 15.1622 132.097 20.6534C132.097 20.6534 131.848 23.5189 132.971 25.8105C133.6 27.104 134.324 28.2819 135.309 29.2585C136.299 30.2351 137.468 31.0104 138.813 31.5801C140.158 32.154 141.606 32.4367 143.156 32.4367C144.681 32.4367 146.124 32.214 147.499 31.7771C148.63 31.413 149.782 30.8348 150.952 30.0381C151.346 29.7725 151.393 29.2071 151.059 28.8688L148.93 26.74C148.669 26.4787 148.253 26.4273 147.949 26.6414C147.427 27.0098 146.818 27.3139 146.12 27.5581C145.191 27.8793 144.261 28.0421 143.336 28.0421C142.574 28.0421 141.875 27.9307 141.246 27.7037C140.616 27.4767 140.046 27.1683 139.545 26.7742C139.044 26.3802 138.624 25.9176 138.277 25.3822C137.931 24.8468 137.665 24.2814 137.477 23.686H151.144C151.534 23.686 151.86 23.3904 151.903 23.0049L151.945 22.5809C151.98 22.2211 151.984 20.949 151.963 20.6577H151.98V20.6534ZM137.279 19.5355C137.279 16.9955 139.468 14.9395 142.171 14.9395C144.874 14.9395 147.063 16.9955 147.063 19.5355H137.279ZM127.329 25.8319C127.017 25.5192 126.511 25.5406 126.216 25.8747C125.796 26.3502 125.295 26.7571 124.712 27.0955C123.881 27.5838 122.952 27.8279 121.928 27.8279C121.144 27.8279 120.39 27.6609 119.675 27.3268C118.96 26.9927 118.339 26.5472 117.816 25.9861C117.294 25.4293 116.874 24.7654 116.566 24.0029C116.253 23.2405 116.099 22.431 116.099 21.5743C116.099 20.7177 116.253 19.9038 116.566 19.1414C116.874 18.379 117.298 17.7194 117.833 17.1583C118.369 16.6014 118.99 16.1517 119.692 15.8176C120.395 15.4878 121.14 15.3164 121.924 15.3164C122.995 15.3164 123.907 15.5435 124.657 15.9975C125.179 16.3102 125.646 16.6828 126.057 17.1111C126.353 17.4195 126.85 17.4238 127.15 17.1154L129.518 14.6996C129.809 14.3998 129.814 13.9158 129.514 13.6288C128.584 12.7336 127.526 12.0397 126.34 11.5643C124.922 10.9903 123.427 10.7076 121.851 10.7076C120.326 10.7076 118.9 10.986 117.564 11.5471C116.231 12.104 115.079 12.875 114.111 13.8516C113.139 14.8281 112.372 15.9761 111.802 17.2996C111.237 18.6231 110.954 20.0452 110.954 21.57C110.954 23.1163 111.237 24.5598 111.802 25.8919C112.372 27.2283 113.147 28.3762 114.128 29.3399C115.109 30.3037 116.266 31.0618 117.602 31.6101C118.934 32.1583 120.352 32.4325 121.851 32.4325C123.47 32.4325 125.021 32.1241 126.498 31.503C127.741 30.9847 128.829 30.2608 129.767 29.3356C130.066 29.0401 130.058 28.5604 129.762 28.2605L127.329 25.8319ZM82.038 13.1405C81.3526 12.4252 80.4531 11.8427 79.3352 11.3887C78.2173 10.9389 76.9494 10.7119 75.5188 10.7119C73.9939 10.7119 72.5119 10.9989 71.0685 11.5686C69.8863 12.0354 68.824 12.6651 67.8774 13.4532C67.539 13.7359 67.5176 14.2542 67.8303 14.5711L69.8092 16.5757C70.0747 16.8456 70.5288 16.867 70.8286 16.6357C71.4154 16.1817 72.0022 15.8519 72.589 15.6505C73.3557 15.3893 74.0925 15.2565 74.8035 15.2565C76.2812 15.2565 77.412 15.612 78.2001 16.3273C78.984 17.0426 79.378 18.0063 79.378 19.2228H76.414C75.0562 19.2228 73.7883 19.3641 72.6104 19.6511C71.4283 19.9381 70.4003 20.3707 69.5179 20.9532C68.6356 21.5358 67.9374 22.2639 67.4277 23.1334C66.9137 24.0029 66.661 25.0224 66.661 26.1917C66.661 27.1212 66.8194 27.965 67.145 28.7274C67.4662 29.4898 67.9245 30.1537 68.5199 30.7106C69.1153 31.2717 69.8177 31.7 70.6273 31.9956C71.4368 32.2954 72.3406 32.4453 73.3386 32.4453H83.7256C84.1453 32.4453 84.488 32.1026 84.488 31.6829V20.465C84.488 18.7259 84.3038 17.2953 83.9397 16.1774C83.5714 15.0594 82.9374 14.0443 82.038 13.1405ZM79.3438 28.5732L75.0348 28.6332C73.1287 28.6332 71.5825 27.3568 71.5825 25.7848C71.5825 24.2128 73.1287 22.9364 75.0348 22.9364H79.3438V28.5732ZM64.0781 11.4915H60.1161C59.7906 11.4915 59.4993 11.7013 59.3922 12.0097L54.8862 25.3565L50.3802 12.0097C50.2774 11.7013 49.9861 11.4915 49.6606 11.4915H45.66C45.1289 11.4915 44.7605 12.0226 44.949 12.5195L52.1663 31.6872C52.2777 31.9827 52.5604 32.1797 52.8773 32.1797H56.8951C57.212 32.1797 57.4947 31.9827 57.6104 31.6872L64.7934 12.5195C64.9776 12.0226 64.6093 11.4915 64.0781 11.4915ZM41.1197 4H37.4275C37.0078 4 36.6651 4.34266 36.6651 4.76242L36.6994 11.6371C35.3416 10.7162 32.8273 10.6776 31.9492 10.6776C30.6856 10.6776 29.4563 10.9561 28.2656 11.5172C27.0748 12.0783 26.0169 12.845 25.0831 13.8216C24.1536 14.7982 23.4126 15.9461 22.8515 17.2696C22.2947 18.5889 22.012 20.0281 22.012 21.5786C22.012 23.0306 22.2519 24.4099 22.7402 25.7205C23.2284 27.0312 23.9138 28.1791 24.7961 29.1686C25.6785 30.158 26.7279 30.9419 27.9401 31.5287C29.1565 32.1112 30.4886 32.4025 31.9449 32.4025C32.6688 32.4025 38.9181 32.4282 41.1154 32.4325C41.5395 32.4325 41.8779 32.0941 41.8779 31.67V4.76242C41.8779 4.34266 41.5395 4 41.1197 4ZM36.6994 27.6009C36.6994 27.6009 31.9492 28.6375 29.1565 26.4187C28.5697 25.9518 27.8801 24.911 27.5888 24.14C27.3018 23.3647 27.1605 22.5124 27.1605 21.5872C27.1605 20.632 27.3018 19.7625 27.5888 18.9744C27.8758 18.1905 28.2827 17.518 28.8053 16.9569C29.3321 16.4001 29.9489 15.9675 30.6514 15.672C31.3581 15.3764 32.142 15.2222 33.0029 15.2222C35.6071 15.2222 36.4595 15.9632 36.6994 16.126V27.6009Z" fill="#7000E3"/>
</svg>
