<svg width="37" height="32" viewBox="0 0 37 32" fill="none" xmlns="http://www.w3.org/2000/svg">
<path d="M23.4192 7.95567C23.1473 8.2275 22.9662 8.55557 22.8577 8.9071L22.7414 8.79079C21.6636 7.71303 19.9939 7.62979 19.0196 8.60411C18.7478 8.87593 18.567 9.20366 18.4585 9.5552L18.372 9.46871C17.2946 8.39131 15.6249 8.30808 14.6503 9.28273C14.3785 9.55456 14.1976 9.88229 14.0891 10.2338L12.9901 9.13481C11.9124 8.05705 10.2427 7.97381 9.26803 8.94846C8.29337 9.92312 8.37698 11.5932 9.45438 12.6706L16.2397 19.4559C15.8878 19.5647 15.5601 19.7455 15.2886 20.017C14.3136 20.992 14.3976 22.6617 15.4746 23.7387L19.7159 27.9801C19.7174 27.9816 19.7182 27.983 19.7193 27.9842C19.7219 27.9868 19.7245 27.9887 19.7271 27.9913L20.0291 28.2932C20.0813 28.3454 20.1393 28.3866 20.1995 28.4218C24.3569 32.1462 30.4521 32.3207 34.0705 28.7023C37.8288 24.944 37.5066 18.5066 33.3517 14.3518L27.1416 8.14168C26.0635 7.06496 24.3938 6.98101 23.4192 7.95567ZM32.9511 27.5842C29.7529 30.7824 24.2761 30.5106 20.7378 26.9798L16.4857 22.7277C16.0253 22.2673 15.9895 21.5529 16.4063 21.1361C16.8232 20.7193 17.5375 20.755 17.9979 21.2154L20.615 23.8325C20.9236 24.1412 21.4008 24.1651 21.68 23.8858C21.9593 23.6066 21.9354 23.1294 21.6267 22.8207L10.4655 11.6595C10.0047 11.1987 9.96891 10.4844 10.3858 10.0675C10.8026 9.6507 11.5169 9.68646 11.9777 10.1472L20.334 18.5036C20.6427 18.8122 21.1198 18.8361 21.3991 18.5569C21.6783 18.2776 21.6544 17.8005 21.3458 17.4918L15.8473 11.9934C15.3869 11.533 15.3512 10.8187 15.768 10.4018C16.1848 9.98496 16.8992 10.0207 17.3596 10.4811L23.9645 17.086C24.2731 17.3947 24.7503 17.4186 25.0295 17.1394C25.3088 16.8601 25.2849 16.383 24.9762 16.0743L20.2171 11.3151C19.7563 10.8543 19.7205 10.14 20.1374 9.72318C20.5539 9.30667 21.2682 9.34244 21.7289 9.80322L27.8712 15.9455C28.1799 16.2541 28.657 16.278 28.9363 15.9988C29.2155 15.7196 29.1916 15.2424 28.883 14.9337L24.6163 10.667C24.1555 10.2062 24.1197 9.49193 24.5369 9.07475C24.9534 8.65824 25.6677 8.694 26.1285 9.15479L32.3382 15.3645C35.8771 18.9021 36.1516 24.3837 32.9511 27.5842Z" fill="white"/>
<path d="M3.69325 3.37503C3.42311 3.64517 3.44629 4.10812 3.74527 4.40711L6.3765 7.03833C6.67548 7.33732 7.13843 7.3605 7.40857 7.09036C7.67939 6.81954 7.65621 6.35659 7.35722 6.0576L4.726 3.42638C4.42701 3.1274 3.96406 3.10422 3.69325 3.37503Z" fill="white"/>
<path d="M6.73698 14.2457L4.35632 16.6263C4.08618 16.8965 4.10936 17.3594 4.40797 17.6581C4.70733 17.9574 5.17029 17.9806 5.44042 17.7105L7.82108 15.3298C8.09156 15.0593 8.06838 14.5964 7.76902 14.297C7.47074 13.9981 7.00745 13.9752 6.73698 14.2457Z" fill="white"/>
<path d="M1.58777 9.83034C1.19657 9.81146 0.874225 10.1353 0.89438 10.5237C0.914536 10.9263 1.25829 11.2708 1.66093 11.2916L5.20442 11.4687C5.39864 11.4788 5.57837 11.4116 5.70922 11.2808C5.84075 11.1492 5.90755 10.9698 5.89777 10.7746C5.87661 10.373 5.53326 10.0296 5.13096 10.0084L1.58777 9.83034Z" fill="white"/>
<path d="M11.0913 1.09329C10.9459 0.948609 10.7597 0.863498 10.5651 0.854469C10.1746 0.834917 9.85178 1.15625 9.87066 1.54745L10.0488 5.09064C10.0578 5.28516 10.143 5.47287 10.288 5.61789C10.433 5.7629 10.6204 5.84842 10.8145 5.85708C11.0098 5.86686 11.1899 5.80009 11.3204 5.66957C11.4509 5.53906 11.5181 5.36004 11.5083 5.16406L11.3309 1.62091C11.3215 1.42602 11.2363 1.23831 11.0913 1.09329Z" fill="white"/>
<path d="M16.8889 4.09375L14.5086 6.47407C14.2385 6.74421 14.2616 7.20716 14.5602 7.50578C14.8596 7.80513 15.3226 7.82831 15.5927 7.55817L17.973 5.17785C18.2435 4.90738 18.2203 4.44442 17.921 4.14507C17.6223 3.84645 17.1594 3.82328 16.8889 4.09375Z" fill="white"/>
<path d="M23.4192 7.95567C23.1473 8.2275 22.9662 8.55557 22.8577 8.9071L22.7414 8.79079C21.6636 7.71303 19.9939 7.62979 19.0196 8.60411C18.7478 8.87593 18.567 9.20366 18.4585 9.5552L18.372 9.46871C17.2946 8.39131 15.6249 8.30808 14.6503 9.28273C14.3785 9.55456 14.1976 9.88229 14.0891 10.2338L12.9901 9.13481C11.9124 8.05705 10.2427 7.97381 9.26803 8.94846C8.29337 9.92312 8.37698 11.5932 9.45438 12.6706L16.2397 19.4559C15.8878 19.5647 15.5601 19.7455 15.2886 20.017C14.3136 20.992 14.3976 22.6617 15.4746 23.7387L19.7159 27.9801C19.7174 27.9816 19.7182 27.983 19.7193 27.9842C19.7219 27.9868 19.7245 27.9887 19.7271 27.9913L20.0291 28.2932C20.0813 28.3454 20.1393 28.3866 20.1995 28.4218C24.3569 32.1462 30.4521 32.3207 34.0705 28.7023C37.8288 24.944 37.5066 18.5066 33.3517 14.3518L27.1416 8.14168C26.0635 7.06496 24.3938 6.98101 23.4192 7.95567ZM32.9511 27.5842C29.7529 30.7824 24.2761 30.5106 20.7378 26.9798L16.4857 22.7277C16.0253 22.2673 15.9895 21.5529 16.4063 21.1361C16.8232 20.7193 17.5375 20.755 17.9979 21.2154L20.615 23.8325C20.9236 24.1412 21.4008 24.1651 21.68 23.8858C21.9593 23.6066 21.9354 23.1294 21.6267 22.8207L10.4655 11.6595C10.0047 11.1987 9.96891 10.4844 10.3858 10.0675C10.8026 9.6507 11.5169 9.68646 11.9777 10.1472L20.334 18.5036C20.6427 18.8122 21.1198 18.8361 21.3991 18.5569C21.6783 18.2776 21.6544 17.8005 21.3458 17.4918L15.8473 11.9934C15.3869 11.533 15.3512 10.8187 15.768 10.4018C16.1848 9.98496 16.8992 10.0207 17.3596 10.4811L23.9645 17.086C24.2731 17.3947 24.7503 17.4186 25.0295 17.1394C25.3088 16.8601 25.2849 16.383 24.9762 16.0743L20.2171 11.3151C19.7563 10.8543 19.7205 10.14 20.1374 9.72318C20.5539 9.30667 21.2682 9.34244 21.7289 9.80322L27.8712 15.9455C28.1799 16.2541 28.657 16.278 28.9363 15.9988C29.2155 15.7196 29.1916 15.2424 28.883 14.9337L24.6163 10.667C24.1555 10.2062 24.1197 9.49193 24.5369 9.07475C24.9534 8.65824 25.6677 8.694 26.1285 9.15479L32.3382 15.3645C35.8771 18.9021 36.1516 24.3837 32.9511 27.5842Z" stroke="white" stroke-width="0.2"/>
<path d="M3.69325 3.37503C3.42311 3.64517 3.44629 4.10812 3.74527 4.40711L6.3765 7.03833C6.67548 7.33732 7.13843 7.3605 7.40857 7.09036C7.67939 6.81954 7.65621 6.35659 7.35722 6.0576L4.726 3.42638C4.42701 3.1274 3.96406 3.10422 3.69325 3.37503Z" stroke="white" stroke-width="0.2"/>
<path d="M6.73698 14.2457L4.35632 16.6263C4.08618 16.8965 4.10936 17.3594 4.40797 17.6581C4.70733 17.9574 5.17029 17.9806 5.44042 17.7105L7.82108 15.3298C8.09156 15.0593 8.06838 14.5964 7.76902 14.297C7.47074 13.9981 7.00745 13.9752 6.73698 14.2457Z" stroke="white" stroke-width="0.2"/>
<path d="M1.58777 9.83034C1.19657 9.81146 0.874225 10.1353 0.89438 10.5237C0.914536 10.9263 1.25829 11.2708 1.66093 11.2916L5.20442 11.4687C5.39864 11.4788 5.57837 11.4116 5.70922 11.2808C5.84075 11.1492 5.90755 10.9698 5.89777 10.7746C5.87661 10.373 5.53326 10.0296 5.13096 10.0084L1.58777 9.83034Z" stroke="white" stroke-width="0.2"/>
<path d="M11.0913 1.09329C10.9459 0.948609 10.7597 0.863498 10.5651 0.854469C10.1746 0.834917 9.85178 1.15625 9.87066 1.54745L10.0488 5.09064C10.0578 5.28516 10.143 5.47287 10.288 5.61789C10.433 5.7629 10.6204 5.84842 10.8145 5.85708C11.0098 5.86686 11.1899 5.80009 11.3204 5.66957C11.4509 5.53906 11.5181 5.36004 11.5083 5.16406L11.3309 1.62091C11.3215 1.42602 11.2363 1.23831 11.0913 1.09329Z" stroke="white" stroke-width="0.2"/>
<path d="M16.8889 4.09375L14.5086 6.47407C14.2385 6.74421 14.2616 7.20716 14.5602 7.50578C14.8596 7.80513 15.3226 7.82831 15.5927 7.55817L17.973 5.17785C18.2435 4.90738 18.2203 4.44442 17.921 4.14507C17.6223 3.84645 17.1594 3.82328 16.8889 4.09375Z" stroke="white" stroke-width="0.2"/>
</svg>
